<mxfile host="app.diagrams.net" modified="2021-10-20T15:09:56.936Z" agent="5.0 (X11)" etag="EagTus5SN-twksRaeSsp" version="15.5.6" type="github" pages="2">
  <diagram name="Cliente" id="0783ab3e-0a74-02c8-0abd-f7b4e66b4bec">
    <mxGraphModel dx="1988" dy="1383" grid="1" gridSize="10" guides="1" tooltips="1" connect="1" arrows="1" fold="1" page="1" pageScale="1" pageWidth="1169" pageHeight="827" math="0" shadow="0">
      <root>
        <mxCell id="0" />
        <mxCell id="1" parent="0" />
        <mxCell id="LE1P0ZQWoaHicoNtDAZf-1" value=" " style="swimlane;childLayout=stackLayout;resizeParent=1;resizeParentMax=0;startSize=20;horizontal=0;horizontalStack=1;rounded=0;sketch=0;swimlaneLine=0;strokeOpacity=100;separatorColor=none;" parent="1" vertex="1">
          <mxGeometry x="-1120" y="-20" width="1730" height="1150" as="geometry" />
        </mxCell>
        <mxCell id="LE1P0ZQWoaHicoNtDAZf-23" value="SplashScreen" style="swimlane;startSize=20;rounded=0;sketch=0;" parent="LE1P0ZQWoaHicoNtDAZf-1" vertex="1">
          <mxGeometry x="20" width="190" height="1150" as="geometry" />
        </mxCell>
        <mxCell id="xOhRouxDfGiZBzLTzBQK-120" value="&lt;div&gt;&lt;span style=&quot;&quot;&gt;Tela de &lt;br&gt;&lt;/span&gt;&lt;/div&gt;&lt;div&gt;&lt;span style=&quot;&quot;&gt;carregamento&lt;/span&gt;&lt;/div&gt;" style="shape=hexagon;perimeter=hexagonPerimeter2;whiteSpace=wrap;html=1;fixedSize=1;rounded=0;labelBackgroundColor=none;labelBorderColor=none;sketch=0;align=center;fillColor=#cce5ff;strokeColor=#36393d;" parent="LE1P0ZQWoaHicoNtDAZf-23" vertex="1">
          <mxGeometry x="20" y="80" width="120" height="40" as="geometry" />
        </mxCell>
        <mxCell id="LE1P0ZQWoaHicoNtDAZf-2" value="Tela de Login" style="swimlane;startSize=20;rounded=0;sketch=0;" parent="LE1P0ZQWoaHicoNtDAZf-1" vertex="1">
          <mxGeometry x="210" width="1170" height="1150" as="geometry" />
        </mxCell>
        <mxCell id="xOhRouxDfGiZBzLTzBQK-249" style="edgeStyle=orthogonalEdgeStyle;rounded=0;sketch=0;orthogonalLoop=1;jettySize=auto;html=1;entryX=0;entryY=0.5;entryDx=0;entryDy=0;fontColor=#5AA9E6;strokeColor=#000000;fillColor=#FFE45E;endArrow=block;endFill=0;endSize=10;startSize=10;strokeWidth=2;" parent="LE1P0ZQWoaHicoNtDAZf-2" source="LE1P0ZQWoaHicoNtDAZf-86" target="xOhRouxDfGiZBzLTzBQK-152" edge="1">
          <mxGeometry relative="1" as="geometry" />
        </mxCell>
        <mxCell id="xOhRouxDfGiZBzLTzBQK-251" style="edgeStyle=orthogonalEdgeStyle;rounded=0;sketch=0;orthogonalLoop=1;jettySize=auto;html=1;fontColor=#5AA9E6;endArrow=block;endFill=0;startSize=10;endSize=10;strokeColor=#000000;strokeWidth=2;fillColor=#FFE45E;" parent="LE1P0ZQWoaHicoNtDAZf-2" source="LE1P0ZQWoaHicoNtDAZf-86" target="xOhRouxDfGiZBzLTzBQK-245" edge="1">
          <mxGeometry relative="1" as="geometry" />
        </mxCell>
        <mxCell id="xOhRouxDfGiZBzLTzBQK-252" style="edgeStyle=orthogonalEdgeStyle;rounded=0;sketch=0;orthogonalLoop=1;jettySize=auto;html=1;fontColor=#5AA9E6;endArrow=block;endFill=0;startSize=10;endSize=10;strokeColor=#000000;strokeWidth=2;fillColor=#FFE45E;" parent="LE1P0ZQWoaHicoNtDAZf-2" source="LE1P0ZQWoaHicoNtDAZf-86" target="xOhRouxDfGiZBzLTzBQK-247" edge="1">
          <mxGeometry relative="1" as="geometry" />
        </mxCell>
        <mxCell id="LE1P0ZQWoaHicoNtDAZf-86" value="" style="shape=table;html=1;whiteSpace=wrap;startSize=0;container=1;collapsible=0;childLayout=tableLayout;columnLines=1;rowLines=1;rounded=0;sketch=0;align=left;labelBorderColor=#000000;fixedRows=0;autosize=1;resizeHeight=1;resizeWidth=1;" parent="LE1P0ZQWoaHicoNtDAZf-2" vertex="1">
          <mxGeometry x="280" y="130" width="260" height="427" as="geometry" />
        </mxCell>
        <mxCell id="LE1P0ZQWoaHicoNtDAZf-87" value="" style="shape=partialRectangle;html=1;whiteSpace=wrap;collapsible=0;dropTarget=0;pointerEvents=0;top=0;left=0;bottom=0;right=0;points=[[0,0.5],[1,0.5]];portConstraint=eastwest;rounded=0;sketch=0;align=left;" parent="LE1P0ZQWoaHicoNtDAZf-86" vertex="1">
          <mxGeometry width="260" height="20" as="geometry" />
        </mxCell>
        <mxCell id="LE1P0ZQWoaHicoNtDAZf-88" value="Dado informado" style="shape=partialRectangle;html=1;whiteSpace=wrap;connectable=0;top=0;left=0;bottom=0;right=0;overflow=hidden;pointerEvents=1;rounded=0;sketch=0;align=center;fontStyle=1" parent="LE1P0ZQWoaHicoNtDAZf-87" vertex="1">
          <mxGeometry width="130" height="20" as="geometry">
            <mxRectangle width="130" height="20" as="alternateBounds" />
          </mxGeometry>
        </mxCell>
        <mxCell id="LE1P0ZQWoaHicoNtDAZf-89" value="Formato do dado&lt;span style=&quot;white-space: pre&quot;&gt;&lt;/span&gt;" style="shape=partialRectangle;html=1;whiteSpace=wrap;connectable=0;top=0;left=0;bottom=0;right=0;overflow=hidden;pointerEvents=1;rounded=0;sketch=0;align=center;fontStyle=1" parent="LE1P0ZQWoaHicoNtDAZf-87" vertex="1">
          <mxGeometry x="130" width="130" height="20" as="geometry">
            <mxRectangle width="130" height="20" as="alternateBounds" />
          </mxGeometry>
        </mxCell>
        <mxCell id="LE1P0ZQWoaHicoNtDAZf-91" value="" style="shape=partialRectangle;html=1;whiteSpace=wrap;collapsible=0;dropTarget=0;pointerEvents=0;top=0;left=0;bottom=0;right=0;points=[[0,0.5],[1,0.5]];portConstraint=eastwest;rounded=0;sketch=0;align=left;" parent="LE1P0ZQWoaHicoNtDAZf-86" vertex="1">
          <mxGeometry y="20" width="260" height="50" as="geometry" />
        </mxCell>
        <mxCell id="LE1P0ZQWoaHicoNtDAZf-92" value="Nome" style="shape=partialRectangle;html=1;whiteSpace=wrap;connectable=0;top=0;left=0;bottom=1;right=0;overflow=hidden;pointerEvents=1;rounded=0;labelBackgroundColor=none;sketch=0;align=left;" parent="LE1P0ZQWoaHicoNtDAZf-91" vertex="1">
          <mxGeometry width="130" height="50" as="geometry">
            <mxRectangle width="130" height="50" as="alternateBounds" />
          </mxGeometry>
        </mxCell>
        <mxCell id="LE1P0ZQWoaHicoNtDAZf-93" value="Texto sem números ou pontuação" style="shape=partialRectangle;html=1;whiteSpace=wrap;connectable=0;top=0;left=0;bottom=1;right=0;overflow=hidden;pointerEvents=1;rounded=0;labelBackgroundColor=none;sketch=0;align=left;" parent="LE1P0ZQWoaHicoNtDAZf-91" vertex="1">
          <mxGeometry x="130" width="130" height="50" as="geometry">
            <mxRectangle width="130" height="50" as="alternateBounds" />
          </mxGeometry>
        </mxCell>
        <mxCell id="LE1P0ZQWoaHicoNtDAZf-95" value="" style="shape=partialRectangle;html=1;whiteSpace=wrap;collapsible=0;dropTarget=0;pointerEvents=0;top=0;left=0;bottom=0;right=0;points=[[0,0.5],[1,0.5]];portConstraint=eastwest;rounded=0;sketch=0;align=left;" parent="LE1P0ZQWoaHicoNtDAZf-86" vertex="1">
          <mxGeometry y="70" width="260" height="40" as="geometry" />
        </mxCell>
        <mxCell id="LE1P0ZQWoaHicoNtDAZf-96" value="Sobrenome" style="shape=partialRectangle;html=1;whiteSpace=wrap;connectable=0;top=0;left=0;bottom=1;right=0;overflow=hidden;pointerEvents=1;rounded=0;labelBackgroundColor=none;sketch=0;align=left;" parent="LE1P0ZQWoaHicoNtDAZf-95" vertex="1">
          <mxGeometry width="130" height="40" as="geometry">
            <mxRectangle width="130" height="40" as="alternateBounds" />
          </mxGeometry>
        </mxCell>
        <mxCell id="LE1P0ZQWoaHicoNtDAZf-97" value="Texto sem números ou pontuação" style="shape=partialRectangle;html=1;whiteSpace=wrap;connectable=0;top=0;left=0;bottom=1;right=0;overflow=visible;pointerEvents=1;rounded=0;labelBackgroundColor=none;sketch=0;align=left;resizeHeight=1;" parent="LE1P0ZQWoaHicoNtDAZf-95" vertex="1">
          <mxGeometry x="130" width="130" height="40" as="geometry">
            <mxRectangle width="130" height="40" as="alternateBounds" />
          </mxGeometry>
        </mxCell>
        <mxCell id="LE1P0ZQWoaHicoNtDAZf-105" style="shape=partialRectangle;html=1;whiteSpace=wrap;collapsible=0;dropTarget=0;pointerEvents=0;top=0;left=0;bottom=0;right=0;points=[[0,0.5],[1,0.5]];portConstraint=eastwest;rounded=0;sketch=0;align=left;" parent="LE1P0ZQWoaHicoNtDAZf-86" vertex="1">
          <mxGeometry y="110" width="260" height="20" as="geometry" />
        </mxCell>
        <mxCell id="LE1P0ZQWoaHicoNtDAZf-106" value="Email" style="shape=partialRectangle;html=1;whiteSpace=wrap;connectable=0;top=0;left=0;bottom=1;right=0;overflow=hidden;pointerEvents=1;rounded=0;labelBackgroundColor=none;sketch=0;align=left;" parent="LE1P0ZQWoaHicoNtDAZf-105" vertex="1">
          <mxGeometry width="130" height="20" as="geometry">
            <mxRectangle width="130" height="20" as="alternateBounds" />
          </mxGeometry>
        </mxCell>
        <mxCell id="LE1P0ZQWoaHicoNtDAZf-107" value="AZaz09-_.@az.az.az" style="shape=partialRectangle;html=1;whiteSpace=wrap;connectable=0;top=0;left=0;bottom=1;right=0;overflow=hidden;pointerEvents=1;rounded=0;labelBackgroundColor=none;sketch=0;align=left;" parent="LE1P0ZQWoaHicoNtDAZf-105" vertex="1">
          <mxGeometry x="130" width="130" height="20" as="geometry">
            <mxRectangle width="130" height="20" as="alternateBounds" />
          </mxGeometry>
        </mxCell>
        <mxCell id="LE1P0ZQWoaHicoNtDAZf-102" style="shape=partialRectangle;html=1;whiteSpace=wrap;collapsible=0;dropTarget=0;pointerEvents=0;top=0;left=0;bottom=0;right=0;points=[[0,0.5],[1,0.5]];portConstraint=eastwest;rounded=0;sketch=0;align=left;" parent="LE1P0ZQWoaHicoNtDAZf-86" vertex="1">
          <mxGeometry y="130" width="260" height="24" as="geometry" />
        </mxCell>
        <mxCell id="LE1P0ZQWoaHicoNtDAZf-103" value="Telefone" style="shape=partialRectangle;html=1;whiteSpace=wrap;connectable=0;top=0;left=0;bottom=1;right=0;overflow=hidden;pointerEvents=1;rounded=0;labelBackgroundColor=none;sketch=0;align=left;" parent="LE1P0ZQWoaHicoNtDAZf-102" vertex="1">
          <mxGeometry width="130" height="24" as="geometry">
            <mxRectangle width="130" height="24" as="alternateBounds" />
          </mxGeometry>
        </mxCell>
        <mxCell id="LE1P0ZQWoaHicoNtDAZf-104" value="(00) 9 0000 0000" style="shape=partialRectangle;html=1;whiteSpace=wrap;connectable=0;top=0;left=0;bottom=1;right=0;overflow=hidden;pointerEvents=1;rounded=0;labelBackgroundColor=none;sketch=0;align=left;" parent="LE1P0ZQWoaHicoNtDAZf-102" vertex="1">
          <mxGeometry x="130" width="130" height="24" as="geometry">
            <mxRectangle width="130" height="24" as="alternateBounds" />
          </mxGeometry>
        </mxCell>
        <mxCell id="xOhRouxDfGiZBzLTzBQK-4" style="shape=partialRectangle;html=1;whiteSpace=wrap;collapsible=0;dropTarget=0;pointerEvents=0;top=0;left=0;bottom=0;right=0;points=[[0,0.5],[1,0.5]];portConstraint=eastwest;rounded=0;sketch=0;align=left;" parent="LE1P0ZQWoaHicoNtDAZf-86" vertex="1">
          <mxGeometry y="154" width="260" height="24" as="geometry" />
        </mxCell>
        <mxCell id="xOhRouxDfGiZBzLTzBQK-5" value="Telefone 2 (opcional)" style="shape=partialRectangle;html=1;whiteSpace=wrap;connectable=0;top=0;left=0;bottom=1;right=0;overflow=hidden;pointerEvents=1;rounded=0;labelBackgroundColor=none;sketch=0;align=left;" parent="xOhRouxDfGiZBzLTzBQK-4" vertex="1">
          <mxGeometry width="130" height="24" as="geometry">
            <mxRectangle width="130" height="24" as="alternateBounds" />
          </mxGeometry>
        </mxCell>
        <mxCell id="xOhRouxDfGiZBzLTzBQK-6" value="(00) 9 0000 0000" style="shape=partialRectangle;html=1;whiteSpace=wrap;connectable=0;top=0;left=0;bottom=1;right=0;overflow=hidden;pointerEvents=1;rounded=0;labelBackgroundColor=none;sketch=0;align=left;" parent="xOhRouxDfGiZBzLTzBQK-4" vertex="1">
          <mxGeometry x="130" width="130" height="24" as="geometry">
            <mxRectangle width="130" height="24" as="alternateBounds" />
          </mxGeometry>
        </mxCell>
        <mxCell id="xOhRouxDfGiZBzLTzBQK-107" style="shape=partialRectangle;html=1;whiteSpace=wrap;collapsible=0;dropTarget=0;pointerEvents=0;top=0;left=0;bottom=0;right=0;points=[[0,0.5],[1,0.5]];portConstraint=eastwest;rounded=0;sketch=0;align=left;" parent="LE1P0ZQWoaHicoNtDAZf-86" vertex="1">
          <mxGeometry y="178" width="260" height="42" as="geometry" />
        </mxCell>
        <mxCell id="xOhRouxDfGiZBzLTzBQK-108" value="Senha" style="shape=partialRectangle;html=1;whiteSpace=wrap;connectable=0;top=0;left=0;bottom=1;right=0;overflow=hidden;pointerEvents=1;rounded=0;labelBackgroundColor=none;sketch=0;align=left;" parent="xOhRouxDfGiZBzLTzBQK-107" vertex="1">
          <mxGeometry width="130" height="42" as="geometry">
            <mxRectangle width="130" height="42" as="alternateBounds" />
          </mxGeometry>
        </mxCell>
        <mxCell id="xOhRouxDfGiZBzLTzBQK-109" value="Texto, números, caracteres especiais" style="shape=partialRectangle;html=1;whiteSpace=wrap;connectable=0;top=0;left=0;bottom=1;right=0;overflow=hidden;pointerEvents=1;rounded=0;labelBackgroundColor=none;sketch=0;align=left;" parent="xOhRouxDfGiZBzLTzBQK-107" vertex="1">
          <mxGeometry x="130" width="130" height="42" as="geometry">
            <mxRectangle width="130" height="42" as="alternateBounds" />
          </mxGeometry>
        </mxCell>
        <mxCell id="LE1P0ZQWoaHicoNtDAZf-99" style="shape=partialRectangle;html=1;whiteSpace=wrap;collapsible=0;dropTarget=0;pointerEvents=0;top=0;left=0;bottom=0;right=0;points=[[0,0.5],[1,0.5]];portConstraint=eastwest;rounded=0;sketch=0;align=left;" parent="LE1P0ZQWoaHicoNtDAZf-86" vertex="1">
          <mxGeometry y="220" width="260" height="23" as="geometry" />
        </mxCell>
        <mxCell id="LE1P0ZQWoaHicoNtDAZf-100" value="Endereço" style="shape=partialRectangle;html=1;whiteSpace=wrap;connectable=0;top=0;left=0;bottom=1;right=0;overflow=hidden;pointerEvents=1;rounded=0;labelBackgroundColor=none;sketch=0;align=center;labelBorderColor=none;fontStyle=1;" parent="LE1P0ZQWoaHicoNtDAZf-99" vertex="1">
          <mxGeometry width="130" height="23" as="geometry">
            <mxRectangle width="130" height="23" as="alternateBounds" />
          </mxGeometry>
        </mxCell>
        <mxCell id="LE1P0ZQWoaHicoNtDAZf-101" value="&lt;div align=&quot;center&quot;&gt;&lt;b&gt;Formato do dado&lt;/b&gt;&lt;br&gt;&lt;/div&gt;" style="shape=partialRectangle;html=1;whiteSpace=wrap;connectable=0;top=0;left=0;bottom=1;right=0;overflow=hidden;pointerEvents=1;rounded=0;labelBackgroundColor=none;sketch=0;align=center;" parent="LE1P0ZQWoaHicoNtDAZf-99" vertex="1">
          <mxGeometry x="130" width="130" height="23" as="geometry">
            <mxRectangle width="130" height="23" as="alternateBounds" />
          </mxGeometry>
        </mxCell>
        <mxCell id="LE1P0ZQWoaHicoNtDAZf-145" style="shape=partialRectangle;html=1;whiteSpace=wrap;collapsible=0;dropTarget=0;pointerEvents=0;top=0;left=0;bottom=0;right=0;points=[[0,0.5],[1,0.5]];portConstraint=eastwest;rounded=0;sketch=0;align=left;" parent="LE1P0ZQWoaHicoNtDAZf-86" vertex="1">
          <mxGeometry y="243" width="260" height="30" as="geometry" />
        </mxCell>
        <mxCell id="LE1P0ZQWoaHicoNtDAZf-146" value="CEP" style="shape=partialRectangle;html=1;whiteSpace=wrap;connectable=0;top=0;left=0;bottom=1;right=0;overflow=hidden;pointerEvents=1;rounded=0;labelBackgroundColor=none;sketch=0;align=left;labelBorderColor=none;fontStyle=0;" parent="LE1P0ZQWoaHicoNtDAZf-145" vertex="1">
          <mxGeometry width="130" height="30" as="geometry">
            <mxRectangle width="130" height="30" as="alternateBounds" />
          </mxGeometry>
        </mxCell>
        <mxCell id="LE1P0ZQWoaHicoNtDAZf-147" value="00000-000" style="shape=partialRectangle;html=1;whiteSpace=wrap;connectable=0;top=0;left=0;bottom=1;right=0;overflow=hidden;pointerEvents=1;rounded=0;labelBackgroundColor=none;sketch=0;align=left;" parent="LE1P0ZQWoaHicoNtDAZf-145" vertex="1">
          <mxGeometry x="130" width="130" height="30" as="geometry">
            <mxRectangle width="130" height="30" as="alternateBounds" />
          </mxGeometry>
        </mxCell>
        <mxCell id="LE1P0ZQWoaHicoNtDAZf-142" style="shape=partialRectangle;html=1;whiteSpace=wrap;collapsible=0;dropTarget=0;pointerEvents=0;top=0;left=0;bottom=0;right=0;points=[[0,0.5],[1,0.5]];portConstraint=eastwest;rounded=0;sketch=0;align=left;" parent="LE1P0ZQWoaHicoNtDAZf-86" vertex="1">
          <mxGeometry y="273" width="260" height="24" as="geometry" />
        </mxCell>
        <mxCell id="LE1P0ZQWoaHicoNtDAZf-143" value="Rua" style="shape=partialRectangle;html=1;whiteSpace=wrap;connectable=0;top=0;left=0;bottom=1;right=0;overflow=hidden;pointerEvents=1;rounded=0;labelBackgroundColor=none;sketch=0;align=left;labelBorderColor=none;fontStyle=0;" parent="LE1P0ZQWoaHicoNtDAZf-142" vertex="1">
          <mxGeometry width="130" height="24" as="geometry">
            <mxRectangle width="130" height="24" as="alternateBounds" />
          </mxGeometry>
        </mxCell>
        <mxCell id="LE1P0ZQWoaHicoNtDAZf-144" value="Texto" style="shape=partialRectangle;html=1;whiteSpace=wrap;connectable=0;top=0;left=0;bottom=1;right=0;overflow=hidden;pointerEvents=1;rounded=0;labelBackgroundColor=none;sketch=0;align=left;" parent="LE1P0ZQWoaHicoNtDAZf-142" vertex="1">
          <mxGeometry x="130" width="130" height="24" as="geometry">
            <mxRectangle width="130" height="24" as="alternateBounds" />
          </mxGeometry>
        </mxCell>
        <mxCell id="LE1P0ZQWoaHicoNtDAZf-139" style="shape=partialRectangle;html=1;whiteSpace=wrap;collapsible=0;dropTarget=0;pointerEvents=0;top=0;left=0;bottom=0;right=0;points=[[0,0.5],[1,0.5]];portConstraint=eastwest;rounded=0;sketch=0;align=left;" parent="LE1P0ZQWoaHicoNtDAZf-86" vertex="1">
          <mxGeometry y="297" width="260" height="23" as="geometry" />
        </mxCell>
        <mxCell id="LE1P0ZQWoaHicoNtDAZf-140" value="Número&lt;span style=&quot;white-space: pre&quot;&gt;&lt;/span&gt;&lt;span style=&quot;white-space: pre&quot;&gt;&lt;/span&gt;&lt;span style=&quot;white-space: pre&quot;&gt;&lt;/span&gt;" style="shape=partialRectangle;html=1;whiteSpace=wrap;connectable=0;top=0;left=0;bottom=1;right=0;overflow=hidden;pointerEvents=1;rounded=0;labelBackgroundColor=none;sketch=0;align=left;labelBorderColor=none;fontStyle=0;" parent="LE1P0ZQWoaHicoNtDAZf-139" vertex="1">
          <mxGeometry width="130" height="23" as="geometry">
            <mxRectangle width="130" height="23" as="alternateBounds" />
          </mxGeometry>
        </mxCell>
        <mxCell id="LE1P0ZQWoaHicoNtDAZf-141" value="Apenas números" style="shape=partialRectangle;html=1;whiteSpace=wrap;connectable=0;top=0;left=0;bottom=1;right=0;overflow=hidden;pointerEvents=1;rounded=0;labelBackgroundColor=none;sketch=0;align=left;" parent="LE1P0ZQWoaHicoNtDAZf-139" vertex="1">
          <mxGeometry x="130" width="130" height="23" as="geometry">
            <mxRectangle width="130" height="23" as="alternateBounds" />
          </mxGeometry>
        </mxCell>
        <mxCell id="LE1P0ZQWoaHicoNtDAZf-136" style="shape=partialRectangle;html=1;whiteSpace=wrap;collapsible=0;dropTarget=0;pointerEvents=0;top=0;left=0;bottom=0;right=0;points=[[0,0.5],[1,0.5]];portConstraint=eastwest;rounded=0;sketch=0;align=left;" parent="LE1P0ZQWoaHicoNtDAZf-86" vertex="1">
          <mxGeometry y="320" width="260" height="38" as="geometry" />
        </mxCell>
        <mxCell id="LE1P0ZQWoaHicoNtDAZf-137" value="Complemento" style="shape=partialRectangle;html=1;whiteSpace=wrap;connectable=0;top=0;left=0;bottom=1;right=0;overflow=hidden;pointerEvents=1;rounded=0;labelBackgroundColor=none;sketch=0;align=left;labelBorderColor=none;fontStyle=0;" parent="LE1P0ZQWoaHicoNtDAZf-136" vertex="1">
          <mxGeometry width="130" height="38" as="geometry">
            <mxRectangle width="130" height="38" as="alternateBounds" />
          </mxGeometry>
        </mxCell>
        <mxCell id="LE1P0ZQWoaHicoNtDAZf-138" value="Texto, números, pontuação" style="shape=partialRectangle;html=1;whiteSpace=wrap;connectable=0;top=0;left=0;bottom=1;right=0;overflow=hidden;pointerEvents=1;rounded=0;labelBackgroundColor=none;sketch=0;align=left;" parent="LE1P0ZQWoaHicoNtDAZf-136" vertex="1">
          <mxGeometry x="130" width="130" height="38" as="geometry">
            <mxRectangle width="130" height="38" as="alternateBounds" />
          </mxGeometry>
        </mxCell>
        <mxCell id="LE1P0ZQWoaHicoNtDAZf-148" style="shape=partialRectangle;html=1;whiteSpace=wrap;collapsible=0;dropTarget=0;pointerEvents=0;top=0;left=0;bottom=0;right=0;points=[[0,0.5],[1,0.5]];portConstraint=eastwest;rounded=0;sketch=0;align=left;" parent="LE1P0ZQWoaHicoNtDAZf-86" vertex="1">
          <mxGeometry y="358" width="260" height="25" as="geometry" />
        </mxCell>
        <mxCell id="LE1P0ZQWoaHicoNtDAZf-149" value="Bairro&lt;span style=&quot;white-space: pre&quot;&gt;&lt;/span&gt;&lt;span style=&quot;white-space: pre&quot;&gt;&lt;/span&gt;" style="shape=partialRectangle;html=1;whiteSpace=wrap;connectable=0;top=0;left=0;bottom=1;right=0;overflow=hidden;pointerEvents=1;rounded=0;labelBackgroundColor=none;sketch=0;align=left;labelBorderColor=none;fontStyle=0;" parent="LE1P0ZQWoaHicoNtDAZf-148" vertex="1">
          <mxGeometry width="130" height="25" as="geometry">
            <mxRectangle width="130" height="25" as="alternateBounds" />
          </mxGeometry>
        </mxCell>
        <mxCell id="LE1P0ZQWoaHicoNtDAZf-150" value="Texto" style="shape=partialRectangle;html=1;whiteSpace=wrap;connectable=0;top=0;left=0;bottom=1;right=0;overflow=hidden;pointerEvents=1;rounded=0;labelBackgroundColor=none;sketch=0;align=left;" parent="LE1P0ZQWoaHicoNtDAZf-148" vertex="1">
          <mxGeometry x="130" width="130" height="25" as="geometry">
            <mxRectangle width="130" height="25" as="alternateBounds" />
          </mxGeometry>
        </mxCell>
        <mxCell id="xOhRouxDfGiZBzLTzBQK-1" style="shape=partialRectangle;html=1;whiteSpace=wrap;collapsible=0;dropTarget=0;pointerEvents=0;top=0;left=0;bottom=0;right=0;points=[[0,0.5],[1,0.5]];portConstraint=eastwest;rounded=0;sketch=0;align=left;" parent="LE1P0ZQWoaHicoNtDAZf-86" vertex="1">
          <mxGeometry y="383" width="260" height="22" as="geometry" />
        </mxCell>
        <mxCell id="xOhRouxDfGiZBzLTzBQK-2" value="Cidade" style="shape=partialRectangle;html=1;whiteSpace=wrap;connectable=0;top=0;left=0;bottom=1;right=0;overflow=hidden;pointerEvents=1;rounded=0;labelBackgroundColor=none;sketch=0;align=left;labelBorderColor=none;fontStyle=0;" parent="xOhRouxDfGiZBzLTzBQK-1" vertex="1">
          <mxGeometry width="130" height="22" as="geometry">
            <mxRectangle width="130" height="22" as="alternateBounds" />
          </mxGeometry>
        </mxCell>
        <mxCell id="xOhRouxDfGiZBzLTzBQK-3" value="Texto" style="shape=partialRectangle;html=1;whiteSpace=wrap;connectable=0;top=0;left=0;bottom=1;right=0;overflow=hidden;pointerEvents=1;rounded=0;labelBackgroundColor=none;sketch=0;align=left;" parent="xOhRouxDfGiZBzLTzBQK-1" vertex="1">
          <mxGeometry x="130" width="130" height="22" as="geometry">
            <mxRectangle width="130" height="22" as="alternateBounds" />
          </mxGeometry>
        </mxCell>
        <mxCell id="xOhRouxDfGiZBzLTzBQK-8" style="shape=partialRectangle;html=1;whiteSpace=wrap;collapsible=0;dropTarget=0;pointerEvents=0;top=0;left=0;bottom=0;right=0;points=[[0,0.5],[1,0.5]];portConstraint=eastwest;rounded=0;sketch=0;align=left;" parent="LE1P0ZQWoaHicoNtDAZf-86" vertex="1">
          <mxGeometry y="405" width="260" height="22" as="geometry" />
        </mxCell>
        <mxCell id="xOhRouxDfGiZBzLTzBQK-9" value="Estado" style="shape=partialRectangle;html=1;whiteSpace=wrap;connectable=0;top=0;left=0;bottom=1;right=0;overflow=hidden;pointerEvents=1;rounded=0;labelBackgroundColor=none;sketch=0;align=left;labelBorderColor=none;fontStyle=0;" parent="xOhRouxDfGiZBzLTzBQK-8" vertex="1">
          <mxGeometry width="130" height="22" as="geometry">
            <mxRectangle width="130" height="22" as="alternateBounds" />
          </mxGeometry>
        </mxCell>
        <mxCell id="xOhRouxDfGiZBzLTzBQK-10" value="Texto" style="shape=partialRectangle;html=1;whiteSpace=wrap;connectable=0;top=0;left=0;bottom=1;right=0;overflow=hidden;pointerEvents=1;rounded=0;labelBackgroundColor=none;sketch=0;align=left;" parent="xOhRouxDfGiZBzLTzBQK-8" vertex="1">
          <mxGeometry x="130" width="130" height="22" as="geometry">
            <mxRectangle width="130" height="22" as="alternateBounds" />
          </mxGeometry>
        </mxCell>
        <mxCell id="xOhRouxDfGiZBzLTzBQK-262" style="edgeStyle=orthogonalEdgeStyle;rounded=0;sketch=0;orthogonalLoop=1;jettySize=auto;html=1;fontColor=#5AA9E6;endArrow=block;endFill=0;startSize=10;endSize=10;strokeColor=#000000;strokeWidth=2;fillColor=#FFE45E;" parent="LE1P0ZQWoaHicoNtDAZf-2" source="xOhRouxDfGiZBzLTzBQK-13" target="xOhRouxDfGiZBzLTzBQK-258" edge="1">
          <mxGeometry relative="1" as="geometry" />
        </mxCell>
        <mxCell id="xOhRouxDfGiZBzLTzBQK-263" style="edgeStyle=orthogonalEdgeStyle;rounded=0;sketch=0;orthogonalLoop=1;jettySize=auto;html=1;fontColor=#5AA9E6;endArrow=block;endFill=0;startSize=10;endSize=10;strokeColor=#000000;strokeWidth=2;fillColor=#FFE45E;startArrow=none;entryX=0;entryY=0.5;entryDx=0;entryDy=0;" parent="LE1P0ZQWoaHicoNtDAZf-2" source="xOhRouxDfGiZBzLTzBQK-264" target="xOhRouxDfGiZBzLTzBQK-256" edge="1">
          <mxGeometry relative="1" as="geometry">
            <Array as="points">
              <mxPoint x="540" y="626" />
              <mxPoint x="540" y="695" />
            </Array>
          </mxGeometry>
        </mxCell>
        <mxCell id="xOhRouxDfGiZBzLTzBQK-13" value="" style="shape=table;html=1;whiteSpace=wrap;startSize=0;container=1;collapsible=0;childLayout=tableLayout;columnLines=1;rowLines=1;rounded=0;sketch=0;align=left;labelBorderColor=#000000;fixedRows=0;autosize=1;resizeHeight=1;resizeWidth=1;" parent="LE1P0ZQWoaHicoNtDAZf-2" vertex="1">
          <mxGeometry x="280" y="580" width="130" height="93" as="geometry" />
        </mxCell>
        <mxCell id="xOhRouxDfGiZBzLTzBQK-14" value="" style="shape=partialRectangle;html=1;whiteSpace=wrap;collapsible=0;dropTarget=0;pointerEvents=0;top=0;left=0;bottom=0;right=0;points=[[0,0.5],[1,0.5]];portConstraint=eastwest;rounded=0;sketch=0;align=left;" parent="xOhRouxDfGiZBzLTzBQK-13" vertex="1">
          <mxGeometry width="130" height="26" as="geometry" />
        </mxCell>
        <mxCell id="xOhRouxDfGiZBzLTzBQK-15" value="Opções" style="shape=partialRectangle;html=1;whiteSpace=wrap;connectable=0;top=0;left=0;bottom=1;right=0;overflow=hidden;pointerEvents=1;rounded=0;sketch=0;align=center;fontStyle=1" parent="xOhRouxDfGiZBzLTzBQK-14" vertex="1">
          <mxGeometry width="130" height="26" as="geometry">
            <mxRectangle width="130" height="26" as="alternateBounds" />
          </mxGeometry>
        </mxCell>
        <mxCell id="xOhRouxDfGiZBzLTzBQK-17" value="" style="shape=partialRectangle;html=1;whiteSpace=wrap;collapsible=0;dropTarget=0;pointerEvents=0;top=0;left=0;bottom=0;right=0;points=[[0,0.5],[1,0.5]];portConstraint=eastwest;rounded=0;sketch=0;align=left;" parent="xOhRouxDfGiZBzLTzBQK-13" vertex="1">
          <mxGeometry y="26" width="130" height="20" as="geometry" />
        </mxCell>
        <mxCell id="xOhRouxDfGiZBzLTzBQK-18" value="Google" style="shape=partialRectangle;html=1;whiteSpace=wrap;connectable=0;top=0;left=0;bottom=1;right=0;overflow=hidden;pointerEvents=1;rounded=0;labelBackgroundColor=none;sketch=0;align=left;" parent="xOhRouxDfGiZBzLTzBQK-17" vertex="1">
          <mxGeometry width="130" height="20" as="geometry">
            <mxRectangle width="130" height="20" as="alternateBounds" />
          </mxGeometry>
        </mxCell>
        <mxCell id="xOhRouxDfGiZBzLTzBQK-20" value="" style="shape=partialRectangle;html=1;whiteSpace=wrap;collapsible=0;dropTarget=0;pointerEvents=0;top=0;left=0;bottom=0;right=0;points=[[0,0.5],[1,0.5]];portConstraint=eastwest;rounded=0;sketch=0;align=left;" parent="xOhRouxDfGiZBzLTzBQK-13" vertex="1">
          <mxGeometry y="46" width="130" height="25" as="geometry" />
        </mxCell>
        <mxCell id="xOhRouxDfGiZBzLTzBQK-21" value="Facebook" style="shape=partialRectangle;html=1;whiteSpace=wrap;connectable=0;top=0;left=0;bottom=1;right=0;overflow=hidden;pointerEvents=1;rounded=0;labelBackgroundColor=none;sketch=0;align=left;" parent="xOhRouxDfGiZBzLTzBQK-20" vertex="1">
          <mxGeometry width="130" height="25" as="geometry">
            <mxRectangle width="130" height="25" as="alternateBounds" />
          </mxGeometry>
        </mxCell>
        <mxCell id="xOhRouxDfGiZBzLTzBQK-23" style="shape=partialRectangle;html=1;whiteSpace=wrap;collapsible=0;dropTarget=0;pointerEvents=0;top=0;left=0;bottom=0;right=0;points=[[0,0.5],[1,0.5]];portConstraint=eastwest;rounded=0;sketch=0;align=left;" parent="xOhRouxDfGiZBzLTzBQK-13" vertex="1">
          <mxGeometry y="71" width="130" height="22" as="geometry" />
        </mxCell>
        <mxCell id="xOhRouxDfGiZBzLTzBQK-24" value="Hotmail" style="shape=partialRectangle;html=1;whiteSpace=wrap;connectable=0;top=0;left=0;bottom=1;right=0;overflow=hidden;pointerEvents=1;rounded=0;labelBackgroundColor=none;sketch=0;align=left;" parent="xOhRouxDfGiZBzLTzBQK-23" vertex="1">
          <mxGeometry width="130" height="22" as="geometry">
            <mxRectangle width="130" height="22" as="alternateBounds" />
          </mxGeometry>
        </mxCell>
        <mxCell id="xOhRouxDfGiZBzLTzBQK-139" style="edgeStyle=orthogonalEdgeStyle;rounded=0;sketch=0;orthogonalLoop=1;jettySize=auto;html=1;entryX=0;entryY=0.5;entryDx=0;entryDy=0;fontColor=#5AA9E6;endArrow=block;endFill=0;startSize=10;strokeWidth=2;endSize=10;" parent="LE1P0ZQWoaHicoNtDAZf-2" source="xOhRouxDfGiZBzLTzBQK-59" target="xOhRouxDfGiZBzLTzBQK-137" edge="1">
          <mxGeometry relative="1" as="geometry" />
        </mxCell>
        <mxCell id="xOhRouxDfGiZBzLTzBQK-142" style="edgeStyle=orthogonalEdgeStyle;rounded=0;sketch=0;orthogonalLoop=1;jettySize=auto;html=1;entryX=0;entryY=0.5;entryDx=0;entryDy=0;fontColor=#5AA9E6;endArrow=block;endFill=0;startSize=10;strokeWidth=2;endSize=10;" parent="LE1P0ZQWoaHicoNtDAZf-2" source="xOhRouxDfGiZBzLTzBQK-59" target="xOhRouxDfGiZBzLTzBQK-140" edge="1">
          <mxGeometry relative="1" as="geometry" />
        </mxCell>
        <mxCell id="xOhRouxDfGiZBzLTzBQK-59" value="&lt;span style=&quot;background-color: transparent&quot;&gt;Cadastro&lt;/span&gt;" style="shape=hexagon;perimeter=hexagonPerimeter2;whiteSpace=wrap;html=1;fixedSize=1;rounded=0;labelBackgroundColor=none;labelBorderColor=none;sketch=0;align=center;fillColor=#cce5ff;strokeColor=#36393d;" parent="LE1P0ZQWoaHicoNtDAZf-2" vertex="1">
          <mxGeometry x="30" y="80" width="120" height="40" as="geometry" />
        </mxCell>
        <mxCell id="xOhRouxDfGiZBzLTzBQK-147" style="edgeStyle=orthogonalEdgeStyle;rounded=0;sketch=0;orthogonalLoop=1;jettySize=auto;html=1;entryX=0;entryY=0.5;entryDx=0;entryDy=0;fontColor=#5AA9E6;endArrow=block;endFill=0;startSize=10;strokeWidth=2;endSize=10;" parent="LE1P0ZQWoaHicoNtDAZf-2" source="xOhRouxDfGiZBzLTzBQK-62" target="xOhRouxDfGiZBzLTzBQK-145" edge="1">
          <mxGeometry relative="1" as="geometry" />
        </mxCell>
        <mxCell id="xOhRouxDfGiZBzLTzBQK-148" style="edgeStyle=orthogonalEdgeStyle;rounded=0;sketch=0;orthogonalLoop=1;jettySize=auto;html=1;entryX=0;entryY=0.5;entryDx=0;entryDy=0;fontColor=#5AA9E6;endArrow=block;endFill=0;startSize=10;endSize=10;strokeWidth=2;" parent="LE1P0ZQWoaHicoNtDAZf-2" source="xOhRouxDfGiZBzLTzBQK-62" target="xOhRouxDfGiZBzLTzBQK-146" edge="1">
          <mxGeometry relative="1" as="geometry" />
        </mxCell>
        <mxCell id="xOhRouxDfGiZBzLTzBQK-150" style="edgeStyle=orthogonalEdgeStyle;rounded=0;sketch=0;orthogonalLoop=1;jettySize=auto;html=1;entryX=0;entryY=0.5;entryDx=0;entryDy=0;fontColor=#5AA9E6;endArrow=block;endFill=0;startSize=10;endSize=10;strokeWidth=2;" parent="LE1P0ZQWoaHicoNtDAZf-2" source="xOhRouxDfGiZBzLTzBQK-62" target="xOhRouxDfGiZBzLTzBQK-149" edge="1">
          <mxGeometry relative="1" as="geometry" />
        </mxCell>
        <mxCell id="xOhRouxDfGiZBzLTzBQK-62" value="Login" style="shape=hexagon;perimeter=hexagonPerimeter2;whiteSpace=wrap;html=1;fixedSize=1;rounded=0;labelBackgroundColor=none;labelBorderColor=none;sketch=0;align=center;fillColor=#cce5ff;strokeColor=#36393d;" parent="LE1P0ZQWoaHicoNtDAZf-2" vertex="1">
          <mxGeometry x="30" y="720" width="120" height="40" as="geometry" />
        </mxCell>
        <mxCell id="xOhRouxDfGiZBzLTzBQK-272" style="edgeStyle=orthogonalEdgeStyle;rounded=0;sketch=0;orthogonalLoop=1;jettySize=auto;html=1;fontColor=#5AA9E6;endArrow=block;endFill=0;startSize=10;endSize=10;strokeColor=#000000;strokeWidth=2;fillColor=#FFE45E;" parent="LE1P0ZQWoaHicoNtDAZf-2" source="xOhRouxDfGiZBzLTzBQK-64" target="xOhRouxDfGiZBzLTzBQK-268" edge="1">
          <mxGeometry relative="1" as="geometry" />
        </mxCell>
        <mxCell id="xOhRouxDfGiZBzLTzBQK-273" style="edgeStyle=orthogonalEdgeStyle;rounded=0;sketch=0;orthogonalLoop=1;jettySize=auto;html=1;fontColor=#5AA9E6;endArrow=block;endFill=0;startSize=10;endSize=10;strokeColor=#000000;strokeWidth=2;fillColor=#FFE45E;" parent="LE1P0ZQWoaHicoNtDAZf-2" source="xOhRouxDfGiZBzLTzBQK-64" target="xOhRouxDfGiZBzLTzBQK-270" edge="1">
          <mxGeometry relative="1" as="geometry" />
        </mxCell>
        <mxCell id="xOhRouxDfGiZBzLTzBQK-64" value="" style="shape=table;html=1;whiteSpace=wrap;startSize=0;container=1;collapsible=0;childLayout=tableLayout;columnLines=1;rowLines=1;rounded=0;sketch=0;align=left;labelBorderColor=#000000;fixedRows=0;autosize=1;resizeHeight=1;resizeWidth=1;" parent="LE1P0ZQWoaHicoNtDAZf-2" vertex="1">
          <mxGeometry x="280" y="770" width="260" height="96.00000000000011" as="geometry" />
        </mxCell>
        <mxCell id="xOhRouxDfGiZBzLTzBQK-65" value="" style="shape=partialRectangle;html=1;whiteSpace=wrap;collapsible=0;dropTarget=0;pointerEvents=0;top=0;left=0;bottom=0;right=0;points=[[0,0.5],[1,0.5]];portConstraint=eastwest;rounded=0;sketch=0;align=left;" parent="xOhRouxDfGiZBzLTzBQK-64" vertex="1">
          <mxGeometry width="260" height="30" as="geometry" />
        </mxCell>
        <mxCell id="xOhRouxDfGiZBzLTzBQK-66" value="Dado informado" style="shape=partialRectangle;html=1;whiteSpace=wrap;connectable=0;top=0;left=0;bottom=0;right=0;overflow=hidden;pointerEvents=1;rounded=0;sketch=0;align=center;fontStyle=1" parent="xOhRouxDfGiZBzLTzBQK-65" vertex="1">
          <mxGeometry width="130" height="30" as="geometry">
            <mxRectangle width="130" height="30" as="alternateBounds" />
          </mxGeometry>
        </mxCell>
        <mxCell id="xOhRouxDfGiZBzLTzBQK-67" value="Formato do dado&lt;span style=&quot;white-space: pre&quot;&gt;&lt;/span&gt;" style="shape=partialRectangle;html=1;whiteSpace=wrap;connectable=0;top=0;left=0;bottom=0;right=0;overflow=hidden;pointerEvents=1;rounded=0;sketch=0;align=center;fontStyle=1" parent="xOhRouxDfGiZBzLTzBQK-65" vertex="1">
          <mxGeometry x="130" width="130" height="30" as="geometry">
            <mxRectangle width="130" height="30" as="alternateBounds" />
          </mxGeometry>
        </mxCell>
        <mxCell id="xOhRouxDfGiZBzLTzBQK-74" style="shape=partialRectangle;html=1;whiteSpace=wrap;collapsible=0;dropTarget=0;pointerEvents=0;top=0;left=0;bottom=0;right=0;points=[[0,0.5],[1,0.5]];portConstraint=eastwest;rounded=0;sketch=0;align=left;" parent="xOhRouxDfGiZBzLTzBQK-64" vertex="1">
          <mxGeometry y="30" width="260" height="20" as="geometry" />
        </mxCell>
        <mxCell id="xOhRouxDfGiZBzLTzBQK-75" value="Email" style="shape=partialRectangle;html=1;whiteSpace=wrap;connectable=0;top=0;left=0;bottom=1;right=0;overflow=hidden;pointerEvents=1;rounded=0;labelBackgroundColor=none;sketch=0;align=left;" parent="xOhRouxDfGiZBzLTzBQK-74" vertex="1">
          <mxGeometry width="130" height="20" as="geometry">
            <mxRectangle width="130" height="20" as="alternateBounds" />
          </mxGeometry>
        </mxCell>
        <mxCell id="xOhRouxDfGiZBzLTzBQK-76" value="AZaz09-_.@az.az.az" style="shape=partialRectangle;html=1;whiteSpace=wrap;connectable=0;top=0;left=0;bottom=1;right=0;overflow=hidden;pointerEvents=1;rounded=0;labelBackgroundColor=none;sketch=0;align=left;" parent="xOhRouxDfGiZBzLTzBQK-74" vertex="1">
          <mxGeometry x="130" width="130" height="20" as="geometry">
            <mxRectangle width="130" height="20" as="alternateBounds" />
          </mxGeometry>
        </mxCell>
        <mxCell id="xOhRouxDfGiZBzLTzBQK-77" style="shape=partialRectangle;html=1;whiteSpace=wrap;collapsible=0;dropTarget=0;pointerEvents=0;top=0;left=0;bottom=0;right=0;points=[[0,0.5],[1,0.5]];portConstraint=eastwest;rounded=0;sketch=0;align=left;" parent="xOhRouxDfGiZBzLTzBQK-64" vertex="1">
          <mxGeometry y="50" width="260" height="46" as="geometry" />
        </mxCell>
        <mxCell id="xOhRouxDfGiZBzLTzBQK-78" value="Senha" style="shape=partialRectangle;html=1;whiteSpace=wrap;connectable=0;top=0;left=0;bottom=1;right=0;overflow=hidden;pointerEvents=1;rounded=0;labelBackgroundColor=none;sketch=0;align=left;" parent="xOhRouxDfGiZBzLTzBQK-77" vertex="1">
          <mxGeometry width="130" height="46" as="geometry">
            <mxRectangle width="130" height="46" as="alternateBounds" />
          </mxGeometry>
        </mxCell>
        <mxCell id="xOhRouxDfGiZBzLTzBQK-79" value="Texto, números, caracteres especiais" style="shape=partialRectangle;html=1;whiteSpace=wrap;connectable=0;top=0;left=0;bottom=1;right=0;overflow=hidden;pointerEvents=1;rounded=0;labelBackgroundColor=none;sketch=0;align=left;" parent="xOhRouxDfGiZBzLTzBQK-77" vertex="1">
          <mxGeometry x="130" width="130" height="46" as="geometry">
            <mxRectangle width="130" height="46" as="alternateBounds" />
          </mxGeometry>
        </mxCell>
        <mxCell id="xOhRouxDfGiZBzLTzBQK-282" style="edgeStyle=orthogonalEdgeStyle;rounded=0;sketch=0;orthogonalLoop=1;jettySize=auto;html=1;entryX=0.5;entryY=1;entryDx=0;entryDy=0;fontSize=16;fontColor=#5AA9E6;endArrow=block;endFill=0;startSize=10;endSize=10;strokeColor=#000000;strokeWidth=2;fillColor=#FFE45E;" parent="LE1P0ZQWoaHicoNtDAZf-2" source="xOhRouxDfGiZBzLTzBQK-111" target="xOhRouxDfGiZBzLTzBQK-281" edge="1">
          <mxGeometry relative="1" as="geometry">
            <Array as="points">
              <mxPoint x="550" y="927" />
              <mxPoint x="550" y="970" />
              <mxPoint x="1060" y="970" />
            </Array>
          </mxGeometry>
        </mxCell>
        <mxCell id="xOhRouxDfGiZBzLTzBQK-111" value="" style="shape=table;html=1;whiteSpace=wrap;startSize=0;container=1;collapsible=0;childLayout=tableLayout;columnLines=1;rowLines=1;rounded=0;sketch=0;align=left;labelBorderColor=#000000;fixedRows=0;autosize=1;resizeHeight=1;resizeWidth=1;" parent="LE1P0ZQWoaHicoNtDAZf-2" vertex="1">
          <mxGeometry x="280" y="880" width="130" height="93" as="geometry" />
        </mxCell>
        <mxCell id="xOhRouxDfGiZBzLTzBQK-112" value="" style="shape=partialRectangle;html=1;whiteSpace=wrap;collapsible=0;dropTarget=0;pointerEvents=0;top=0;left=0;bottom=0;right=0;points=[[0,0.5],[1,0.5]];portConstraint=eastwest;rounded=0;sketch=0;align=left;" parent="xOhRouxDfGiZBzLTzBQK-111" vertex="1">
          <mxGeometry width="130" height="26" as="geometry" />
        </mxCell>
        <mxCell id="xOhRouxDfGiZBzLTzBQK-113" value="Opções" style="shape=partialRectangle;html=1;whiteSpace=wrap;connectable=0;top=0;left=0;bottom=1;right=0;overflow=hidden;pointerEvents=1;rounded=0;sketch=0;align=center;fontStyle=1" parent="xOhRouxDfGiZBzLTzBQK-112" vertex="1">
          <mxGeometry width="130" height="26" as="geometry">
            <mxRectangle width="130" height="26" as="alternateBounds" />
          </mxGeometry>
        </mxCell>
        <mxCell id="xOhRouxDfGiZBzLTzBQK-114" value="" style="shape=partialRectangle;html=1;whiteSpace=wrap;collapsible=0;dropTarget=0;pointerEvents=0;top=0;left=0;bottom=0;right=0;points=[[0,0.5],[1,0.5]];portConstraint=eastwest;rounded=0;sketch=0;align=left;" parent="xOhRouxDfGiZBzLTzBQK-111" vertex="1">
          <mxGeometry y="26" width="130" height="20" as="geometry" />
        </mxCell>
        <mxCell id="xOhRouxDfGiZBzLTzBQK-115" value="Google" style="shape=partialRectangle;html=1;whiteSpace=wrap;connectable=0;top=0;left=0;bottom=1;right=0;overflow=hidden;pointerEvents=1;rounded=0;labelBackgroundColor=none;sketch=0;align=left;" parent="xOhRouxDfGiZBzLTzBQK-114" vertex="1">
          <mxGeometry width="130" height="20" as="geometry">
            <mxRectangle width="130" height="20" as="alternateBounds" />
          </mxGeometry>
        </mxCell>
        <mxCell id="xOhRouxDfGiZBzLTzBQK-116" value="" style="shape=partialRectangle;html=1;whiteSpace=wrap;collapsible=0;dropTarget=0;pointerEvents=0;top=0;left=0;bottom=0;right=0;points=[[0,0.5],[1,0.5]];portConstraint=eastwest;rounded=0;sketch=0;align=left;" parent="xOhRouxDfGiZBzLTzBQK-111" vertex="1">
          <mxGeometry y="46" width="130" height="25" as="geometry" />
        </mxCell>
        <mxCell id="xOhRouxDfGiZBzLTzBQK-117" value="Facebook" style="shape=partialRectangle;html=1;whiteSpace=wrap;connectable=0;top=0;left=0;bottom=1;right=0;overflow=hidden;pointerEvents=1;rounded=0;labelBackgroundColor=none;sketch=0;align=left;" parent="xOhRouxDfGiZBzLTzBQK-116" vertex="1">
          <mxGeometry width="130" height="25" as="geometry">
            <mxRectangle width="130" height="25" as="alternateBounds" />
          </mxGeometry>
        </mxCell>
        <mxCell id="xOhRouxDfGiZBzLTzBQK-118" style="shape=partialRectangle;html=1;whiteSpace=wrap;collapsible=0;dropTarget=0;pointerEvents=0;top=0;left=0;bottom=0;right=0;points=[[0,0.5],[1,0.5]];portConstraint=eastwest;rounded=0;sketch=0;align=left;" parent="xOhRouxDfGiZBzLTzBQK-111" vertex="1">
          <mxGeometry y="71" width="130" height="22" as="geometry" />
        </mxCell>
        <mxCell id="xOhRouxDfGiZBzLTzBQK-119" value="Hotmail" style="shape=partialRectangle;html=1;whiteSpace=wrap;connectable=0;top=0;left=0;bottom=1;right=0;overflow=hidden;pointerEvents=1;rounded=0;labelBackgroundColor=none;sketch=0;align=left;" parent="xOhRouxDfGiZBzLTzBQK-118" vertex="1">
          <mxGeometry width="130" height="22" as="geometry">
            <mxRectangle width="130" height="22" as="alternateBounds" />
          </mxGeometry>
        </mxCell>
        <mxCell id="xOhRouxDfGiZBzLTzBQK-122" value="Caso o cliente ainda não seja cadastrado" style="shape=note;whiteSpace=wrap;html=1;backgroundOutline=1;darkOpacity=0.05;rounded=1;labelBorderColor=none;sketch=0;align=center;size=8;fillColor=#ffff88;strokeColor=#36393d;" parent="LE1P0ZQWoaHicoNtDAZf-2" vertex="1">
          <mxGeometry x="-70" y="130" width="130" height="40" as="geometry" />
        </mxCell>
        <mxCell id="xOhRouxDfGiZBzLTzBQK-137" value="Manual" style="shape=hexagon;perimeter=hexagonPerimeter2;whiteSpace=wrap;html=1;fixedSize=1;rounded=0;sketch=0;size=20;fillColor=#eeeeee;strokeColor=#36393d;" parent="LE1P0ZQWoaHicoNtDAZf-2" vertex="1">
          <mxGeometry x="150" y="130" width="120" height="40" as="geometry" />
        </mxCell>
        <mxCell id="xOhRouxDfGiZBzLTzBQK-140" value="Via App externo" style="shape=hexagon;perimeter=hexagonPerimeter2;whiteSpace=wrap;html=1;fixedSize=1;rounded=0;sketch=0;size=20;fillColor=#eeeeee;strokeColor=#36393d;" parent="LE1P0ZQWoaHicoNtDAZf-2" vertex="1">
          <mxGeometry x="150" y="580" width="120" height="40" as="geometry" />
        </mxCell>
        <mxCell id="xOhRouxDfGiZBzLTzBQK-144" value="&lt;div&gt;Caso o cliente já&lt;/div&gt;&lt;div&gt;tenha cadastro&lt;/div&gt;" style="shape=note;whiteSpace=wrap;html=1;backgroundOutline=1;darkOpacity=0.05;rounded=1;labelBorderColor=none;sketch=0;align=center;size=8;fillColor=#ffff88;strokeColor=#36393d;" parent="LE1P0ZQWoaHicoNtDAZf-2" vertex="1">
          <mxGeometry x="-90" y="680" width="130" height="40" as="geometry" />
        </mxCell>
        <mxCell id="xOhRouxDfGiZBzLTzBQK-145" value="Manual" style="shape=hexagon;perimeter=hexagonPerimeter2;whiteSpace=wrap;html=1;fixedSize=1;rounded=0;sketch=0;size=20;fillColor=#eeeeee;strokeColor=#36393d;" parent="LE1P0ZQWoaHicoNtDAZf-2" vertex="1">
          <mxGeometry x="150" y="770" width="120" height="40" as="geometry" />
        </mxCell>
        <mxCell id="xOhRouxDfGiZBzLTzBQK-146" value="Via App externo" style="shape=hexagon;perimeter=hexagonPerimeter2;whiteSpace=wrap;html=1;fixedSize=1;rounded=0;sketch=0;size=20;fillColor=#eeeeee;strokeColor=#36393d;" parent="LE1P0ZQWoaHicoNtDAZf-2" vertex="1">
          <mxGeometry x="150" y="880" width="120" height="40" as="geometry" />
        </mxCell>
        <mxCell id="xOhRouxDfGiZBzLTzBQK-149" value="Automático" style="shape=hexagon;perimeter=hexagonPerimeter2;whiteSpace=wrap;html=1;fixedSize=1;rounded=0;sketch=0;size=20;fillColor=#eeeeee;strokeColor=#36393d;" parent="LE1P0ZQWoaHicoNtDAZf-2" vertex="1">
          <mxGeometry x="150" y="1000" width="120" height="40" as="geometry" />
        </mxCell>
        <mxCell id="xOhRouxDfGiZBzLTzBQK-255" style="edgeStyle=orthogonalEdgeStyle;rounded=0;sketch=0;orthogonalLoop=1;jettySize=auto;html=1;fontColor=#5AA9E6;endArrow=block;endFill=0;startSize=10;endSize=10;strokeColor=#000000;strokeWidth=2;fillColor=#FFE45E;" parent="LE1P0ZQWoaHicoNtDAZf-2" source="xOhRouxDfGiZBzLTzBQK-152" target="LE1P0ZQWoaHicoNtDAZf-87" edge="1">
          <mxGeometry relative="1" as="geometry">
            <Array as="points">
              <mxPoint x="910" y="175" />
              <mxPoint x="910" y="80" />
              <mxPoint x="410" y="80" />
            </Array>
          </mxGeometry>
        </mxCell>
        <mxCell id="xOhRouxDfGiZBzLTzBQK-152" value="Dado Inválido" style="swimlane;rounded=0;labelBorderColor=none;sketch=0;align=center;fillColor=#ffcccc;strokeColor=#36393d;" parent="LE1P0ZQWoaHicoNtDAZf-2" vertex="1">
          <mxGeometry x="670" y="130" width="200" height="90" as="geometry" />
        </mxCell>
        <mxCell id="xOhRouxDfGiZBzLTzBQK-153" value="&lt;div&gt;O dado informado para o/a&lt;/div&gt;&lt;div&gt;{dado} não atende ao&lt;/div&gt;&lt;div&gt;formato válido&lt;/div&gt;" style="text;html=1;align=center;verticalAlign=middle;resizable=0;points=[];autosize=1;" parent="xOhRouxDfGiZBzLTzBQK-152" vertex="1">
          <mxGeometry x="20" y="30" width="160" height="50" as="geometry" />
        </mxCell>
        <mxCell id="xOhRouxDfGiZBzLTzBQK-253" style="edgeStyle=orthogonalEdgeStyle;rounded=0;sketch=0;orthogonalLoop=1;jettySize=auto;html=1;fontColor=#5AA9E6;endArrow=block;endFill=0;startSize=10;endSize=10;strokeColor=#000000;strokeWidth=2;fillColor=#FFE45E;" parent="LE1P0ZQWoaHicoNtDAZf-2" source="xOhRouxDfGiZBzLTzBQK-245" target="LE1P0ZQWoaHicoNtDAZf-87" edge="1">
          <mxGeometry relative="1" as="geometry">
            <Array as="points">
              <mxPoint x="910" y="320" />
              <mxPoint x="910" y="80" />
              <mxPoint x="410" y="80" />
            </Array>
          </mxGeometry>
        </mxCell>
        <mxCell id="xOhRouxDfGiZBzLTzBQK-245" value="Dado Ausente" style="swimlane;rounded=0;labelBorderColor=none;sketch=0;align=center;fillColor=#ffcccc;strokeColor=#36393d;" parent="LE1P0ZQWoaHicoNtDAZf-2" vertex="1">
          <mxGeometry x="670" y="280" width="200" height="80" as="geometry" />
        </mxCell>
        <mxCell id="xOhRouxDfGiZBzLTzBQK-246" value="Favor preencher o/a {dado}" style="text;html=1;align=center;verticalAlign=middle;resizable=0;points=[];autosize=1;" parent="xOhRouxDfGiZBzLTzBQK-245" vertex="1">
          <mxGeometry x="20" y="45" width="160" height="20" as="geometry" />
        </mxCell>
        <mxCell id="xOhRouxDfGiZBzLTzBQK-286" value="v" style="edgeStyle=orthogonalEdgeStyle;rounded=0;sketch=0;orthogonalLoop=1;jettySize=auto;html=1;entryX=0.5;entryY=0;entryDx=0;entryDy=0;fontSize=16;fontColor=#5AA9E6;endArrow=block;endFill=0;startSize=10;endSize=10;strokeColor=#000000;strokeWidth=2;fillColor=#FFE45E;" parent="LE1P0ZQWoaHicoNtDAZf-2" source="xOhRouxDfGiZBzLTzBQK-247" target="xOhRouxDfGiZBzLTzBQK-281" edge="1">
          <mxGeometry relative="1" as="geometry">
            <Array as="points">
              <mxPoint x="1060" y="485" />
            </Array>
          </mxGeometry>
        </mxCell>
        <mxCell id="xOhRouxDfGiZBzLTzBQK-247" value="Preenchimento Finalizado" style="swimlane;rounded=0;labelBorderColor=none;sketch=0;align=center;fillColor=#cdeb8b;strokeColor=#36393d;" parent="LE1P0ZQWoaHicoNtDAZf-2" vertex="1">
          <mxGeometry x="670" y="440" width="200" height="90" as="geometry" />
        </mxCell>
        <mxCell id="xOhRouxDfGiZBzLTzBQK-248" value="&lt;div&gt;Dados são enviados para&lt;/div&gt;&lt;div&gt;o banco de dados&lt;/div&gt;" style="text;html=1;align=center;verticalAlign=middle;resizable=0;points=[];autosize=1;" parent="xOhRouxDfGiZBzLTzBQK-247" vertex="1">
          <mxGeometry x="25" y="40" width="150" height="30" as="geometry" />
        </mxCell>
        <mxCell id="xOhRouxDfGiZBzLTzBQK-250" value="&lt;div&gt;Possíveis &lt;br&gt;&lt;/div&gt;&lt;div&gt;resultados&lt;/div&gt;" style="shape=note;whiteSpace=wrap;html=1;backgroundOutline=1;darkOpacity=0.05;rounded=1;labelBorderColor=none;sketch=0;align=center;size=8;fillColor=#ffff88;strokeColor=#36393d;" parent="LE1P0ZQWoaHicoNtDAZf-2" vertex="1">
          <mxGeometry x="560" y="330" width="80" height="40" as="geometry" />
        </mxCell>
        <mxCell id="xOhRouxDfGiZBzLTzBQK-254" value="Solicitação de preenchimento" style="shape=note;whiteSpace=wrap;html=1;backgroundOutline=1;darkOpacity=0.05;rounded=1;labelBorderColor=none;sketch=0;align=center;size=8;fillColor=#ffcccc;strokeColor=#36393d;" parent="LE1P0ZQWoaHicoNtDAZf-2" vertex="1">
          <mxGeometry x="590" y="60" width="120" height="40" as="geometry" />
        </mxCell>
        <mxCell id="xOhRouxDfGiZBzLTzBQK-287" style="edgeStyle=orthogonalEdgeStyle;rounded=0;sketch=0;orthogonalLoop=1;jettySize=auto;html=1;fontSize=16;fontColor=#5AA9E6;endArrow=block;endFill=0;startSize=10;endSize=10;strokeColor=#000000;strokeWidth=2;fillColor=#FFE45E;" parent="LE1P0ZQWoaHicoNtDAZf-2" source="xOhRouxDfGiZBzLTzBQK-256" target="xOhRouxDfGiZBzLTzBQK-281" edge="1">
          <mxGeometry relative="1" as="geometry" />
        </mxCell>
        <mxCell id="xOhRouxDfGiZBzLTzBQK-256" value="Autorização aceita" style="swimlane;rounded=0;labelBorderColor=none;sketch=0;align=center;fillColor=#cdeb8b;strokeColor=#36393d;" parent="LE1P0ZQWoaHicoNtDAZf-2" vertex="1">
          <mxGeometry x="670" y="660" width="200" height="70" as="geometry" />
        </mxCell>
        <mxCell id="xOhRouxDfGiZBzLTzBQK-257" value="&lt;div&gt;Dados são enviados para&lt;/div&gt;&lt;div&gt;o banco de dados&lt;/div&gt;" style="text;html=1;align=center;verticalAlign=middle;resizable=0;points=[];autosize=1;" parent="xOhRouxDfGiZBzLTzBQK-256" vertex="1">
          <mxGeometry x="25" y="30" width="150" height="30" as="geometry" />
        </mxCell>
        <mxCell id="xOhRouxDfGiZBzLTzBQK-258" value="Autorização recusada" style="swimlane;rounded=0;labelBorderColor=none;sketch=0;align=center;fillColor=#ffcccc;strokeColor=#36393d;" parent="LE1P0ZQWoaHicoNtDAZf-2" vertex="1">
          <mxGeometry x="670" y="580" width="200" height="60" as="geometry" />
        </mxCell>
        <mxCell id="xOhRouxDfGiZBzLTzBQK-259" value="Autorização não aceita." style="text;html=1;align=center;verticalAlign=middle;resizable=0;points=[];autosize=1;" parent="xOhRouxDfGiZBzLTzBQK-258" vertex="1">
          <mxGeometry x="30" y="35" width="140" height="20" as="geometry" />
        </mxCell>
        <mxCell id="xOhRouxDfGiZBzLTzBQK-264" value="&lt;div&gt;Possíveis &lt;br&gt;&lt;/div&gt;&lt;div&gt;resultados&lt;/div&gt;" style="shape=note;whiteSpace=wrap;html=1;backgroundOutline=1;darkOpacity=0.05;rounded=1;labelBorderColor=none;sketch=0;align=center;size=8;fillColor=#ffff88;strokeColor=#36393d;" parent="LE1P0ZQWoaHicoNtDAZf-2" vertex="1">
          <mxGeometry x="435" y="606" width="80" height="40" as="geometry" />
        </mxCell>
        <mxCell id="xOhRouxDfGiZBzLTzBQK-265" value="" style="edgeStyle=orthogonalEdgeStyle;rounded=0;sketch=0;orthogonalLoop=1;jettySize=auto;html=1;fontColor=#5AA9E6;endArrow=none;endFill=0;startSize=10;endSize=10;strokeColor=#000000;strokeWidth=2;fillColor=#FFE45E;" parent="LE1P0ZQWoaHicoNtDAZf-2" source="xOhRouxDfGiZBzLTzBQK-13" target="xOhRouxDfGiZBzLTzBQK-264" edge="1">
          <mxGeometry relative="1" as="geometry">
            <mxPoint x="-500" y="626.4827586206895" as="sourcePoint" />
            <mxPoint x="-240" y="715.0344827586207" as="targetPoint" />
            <Array as="points" />
          </mxGeometry>
        </mxCell>
        <mxCell id="xOhRouxDfGiZBzLTzBQK-266" style="edgeStyle=orthogonalEdgeStyle;rounded=0;sketch=0;orthogonalLoop=1;jettySize=auto;html=1;fontColor=#5AA9E6;endArrow=block;endFill=0;startSize=10;endSize=10;strokeColor=#000000;strokeWidth=2;fillColor=#FFE45E;entryX=0.5;entryY=0;entryDx=0;entryDy=0;" parent="LE1P0ZQWoaHicoNtDAZf-2" source="xOhRouxDfGiZBzLTzBQK-258" target="xOhRouxDfGiZBzLTzBQK-59" edge="1">
          <mxGeometry relative="1" as="geometry">
            <mxPoint x="380" y="60" as="targetPoint" />
            <Array as="points">
              <mxPoint x="950" y="610" />
              <mxPoint x="950" y="40" />
              <mxPoint x="90" y="40" />
            </Array>
          </mxGeometry>
        </mxCell>
        <mxCell id="xOhRouxDfGiZBzLTzBQK-267" value="&lt;div&gt;Opção de tentar novamente &lt;br&gt;&lt;/div&gt;&lt;div&gt;cadastro via app externo, ou manual&lt;/div&gt;" style="shape=note;whiteSpace=wrap;html=1;backgroundOutline=1;darkOpacity=0.05;rounded=1;labelBorderColor=none;sketch=0;align=center;size=8;fillColor=#ffcccc;strokeColor=#36393d;" parent="LE1P0ZQWoaHicoNtDAZf-2" vertex="1">
          <mxGeometry x="170" y="30" width="220" height="50" as="geometry" />
        </mxCell>
        <mxCell id="xOhRouxDfGiZBzLTzBQK-284" style="edgeStyle=orthogonalEdgeStyle;rounded=0;sketch=0;orthogonalLoop=1;jettySize=auto;html=1;fontSize=16;fontColor=#5AA9E6;endArrow=block;endFill=0;startSize=10;endSize=10;strokeColor=#000000;strokeWidth=2;fillColor=#FFE45E;" parent="LE1P0ZQWoaHicoNtDAZf-2" source="xOhRouxDfGiZBzLTzBQK-268" target="xOhRouxDfGiZBzLTzBQK-65" edge="1">
          <mxGeometry relative="1" as="geometry">
            <Array as="points">
              <mxPoint x="910" y="805" />
              <mxPoint x="910" y="740" />
              <mxPoint x="410" y="740" />
            </Array>
          </mxGeometry>
        </mxCell>
        <mxCell id="xOhRouxDfGiZBzLTzBQK-268" value="Email Inválido" style="swimlane;rounded=0;labelBorderColor=none;sketch=0;align=center;fillColor=#ffcccc;strokeColor=#36393d;" parent="LE1P0ZQWoaHicoNtDAZf-2" vertex="1">
          <mxGeometry x="670" y="770" width="200" height="70" as="geometry" />
        </mxCell>
        <mxCell id="xOhRouxDfGiZBzLTzBQK-269" value="&lt;div&gt;Email inválido.&lt;/div&gt;&lt;div&gt;Informe novamente&lt;/div&gt;" style="text;html=1;align=center;verticalAlign=middle;resizable=0;points=[];autosize=1;" parent="xOhRouxDfGiZBzLTzBQK-268" vertex="1">
          <mxGeometry x="40" y="30" width="120" height="30" as="geometry" />
        </mxCell>
        <mxCell id="xOhRouxDfGiZBzLTzBQK-285" style="edgeStyle=orthogonalEdgeStyle;rounded=0;sketch=0;orthogonalLoop=1;jettySize=auto;html=1;fontSize=16;fontColor=#5AA9E6;endArrow=block;endFill=0;startSize=10;endSize=10;strokeColor=#000000;strokeWidth=2;fillColor=#FFE45E;" parent="LE1P0ZQWoaHicoNtDAZf-2" source="xOhRouxDfGiZBzLTzBQK-270" target="xOhRouxDfGiZBzLTzBQK-65" edge="1">
          <mxGeometry relative="1" as="geometry">
            <Array as="points">
              <mxPoint x="910" y="900" />
              <mxPoint x="910" y="740" />
              <mxPoint x="410" y="740" />
            </Array>
          </mxGeometry>
        </mxCell>
        <mxCell id="xOhRouxDfGiZBzLTzBQK-270" value="Senha Inválida" style="swimlane;rounded=0;labelBorderColor=none;sketch=0;align=center;fillColor=#ffcccc;strokeColor=#36393d;" parent="LE1P0ZQWoaHicoNtDAZf-2" vertex="1">
          <mxGeometry x="670" y="865" width="200" height="70" as="geometry" />
        </mxCell>
        <mxCell id="xOhRouxDfGiZBzLTzBQK-271" value="&lt;div&gt;Senha inválida.&lt;/div&gt;&lt;div&gt;Informe novamente&lt;/div&gt;" style="text;html=1;align=center;verticalAlign=middle;resizable=0;points=[];autosize=1;" parent="xOhRouxDfGiZBzLTzBQK-270" vertex="1">
          <mxGeometry x="40" y="30" width="120" height="30" as="geometry" />
        </mxCell>
        <mxCell id="xOhRouxDfGiZBzLTzBQK-274" value="&lt;div&gt;Possíveis &lt;br&gt;&lt;/div&gt;&lt;div&gt;resultados&lt;/div&gt;" style="shape=note;whiteSpace=wrap;html=1;backgroundOutline=1;darkOpacity=0.05;rounded=1;labelBorderColor=none;sketch=0;align=center;size=8;fillColor=#ffff88;strokeColor=#36393d;" parent="LE1P0ZQWoaHicoNtDAZf-2" vertex="1">
          <mxGeometry x="570" y="760" width="80" height="40" as="geometry" />
        </mxCell>
        <mxCell id="xOhRouxDfGiZBzLTzBQK-281" value="&lt;div&gt;&lt;font style=&quot;font-size: 16px&quot;&gt;Prossegue&lt;/font&gt;&lt;/div&gt;&lt;div&gt;&lt;font style=&quot;font-size: 16px&quot;&gt;para tela&lt;/font&gt;&lt;/div&gt;&lt;div&gt;&lt;font style=&quot;font-size: 16px&quot;&gt;principal&lt;/font&gt;&lt;/div&gt;" style="shape=hexagon;perimeter=hexagonPerimeter2;whiteSpace=wrap;html=1;fixedSize=1;rounded=0;sketch=0;size=30;fontStyle=1;fillColor=#cdeb8b;strokeColor=#36393d;" parent="LE1P0ZQWoaHicoNtDAZf-2" vertex="1">
          <mxGeometry x="980" y="540" width="160" height="80" as="geometry" />
        </mxCell>
        <mxCell id="xOhRouxDfGiZBzLTzBQK-283" style="edgeStyle=orthogonalEdgeStyle;rounded=0;sketch=0;orthogonalLoop=1;jettySize=auto;html=1;fontSize=16;fontColor=#5AA9E6;endArrow=block;endFill=0;startSize=10;endSize=10;strokeColor=#000000;strokeWidth=2;fillColor=#FFE45E;entryX=0.5;entryY=1;entryDx=0;entryDy=0;" parent="LE1P0ZQWoaHicoNtDAZf-2" source="xOhRouxDfGiZBzLTzBQK-149" target="xOhRouxDfGiZBzLTzBQK-281" edge="1">
          <mxGeometry relative="1" as="geometry">
            <mxPoint x="850" y="1040" as="targetPoint" />
            <Array as="points">
              <mxPoint x="1060" y="1020" />
            </Array>
          </mxGeometry>
        </mxCell>
        <mxCell id="LE1P0ZQWoaHicoNtDAZf-3" value="Lane 2" style="swimlane;startSize=20;rounded=0;sketch=0;" parent="LE1P0ZQWoaHicoNtDAZf-1" vertex="1">
          <mxGeometry x="1380" width="230" height="1150" as="geometry" />
        </mxCell>
        <mxCell id="LE1P0ZQWoaHicoNtDAZf-26" value="Tela principal do app" style="shape=delay;whiteSpace=wrap;html=1;rounded=0;sketch=0;align=left;" parent="LE1P0ZQWoaHicoNtDAZf-3" vertex="1">
          <mxGeometry y="40" width="80" height="40" as="geometry" />
        </mxCell>
        <mxCell id="LE1P0ZQWoaHicoNtDAZf-4" value="Lane 3" style="swimlane;startSize=20;rounded=0;sketch=0;" parent="LE1P0ZQWoaHicoNtDAZf-1" vertex="1">
          <mxGeometry x="1610" width="120" height="1150" as="geometry" />
        </mxCell>
        <mxCell id="xOhRouxDfGiZBzLTzBQK-121" style="edgeStyle=orthogonalEdgeStyle;curved=0;rounded=1;sketch=0;orthogonalLoop=1;jettySize=auto;html=1;fontColor=#5AA9E6;endArrow=block;endFill=0;startSize=10;strokeWidth=2;endSize=10;" parent="LE1P0ZQWoaHicoNtDAZf-1" source="xOhRouxDfGiZBzLTzBQK-120" target="xOhRouxDfGiZBzLTzBQK-59" edge="1">
          <mxGeometry relative="1" as="geometry" />
        </mxCell>
        <mxCell id="xOhRouxDfGiZBzLTzBQK-143" style="edgeStyle=orthogonalEdgeStyle;rounded=0;sketch=0;orthogonalLoop=1;jettySize=auto;html=1;fontColor=#5AA9E6;endArrow=block;endFill=0;startSize=10;strokeWidth=2;entryX=0;entryY=0.5;entryDx=0;entryDy=0;endSize=10;" parent="LE1P0ZQWoaHicoNtDAZf-1" source="xOhRouxDfGiZBzLTzBQK-120" target="xOhRouxDfGiZBzLTzBQK-62" edge="1">
          <mxGeometry relative="1" as="geometry">
            <mxPoint x="150" y="560" as="targetPoint" />
            <Array as="points">
              <mxPoint x="100" y="740" />
            </Array>
          </mxGeometry>
        </mxCell>
      </root>
    </mxGraphModel>
  </diagram>
  <diagram id="Zsf7WKvb3UavC41mwWjz" name="Page-2">
    <mxGraphModel dx="2356" dy="806" grid="1" gridSize="10" guides="1" tooltips="1" connect="1" arrows="1" fold="1" page="1" pageScale="1" pageWidth="1169" pageHeight="827" math="0" shadow="0">
      <root>
        <mxCell id="OAlnZOTtO5sy9GfkJ5ln-0" />
        <mxCell id="OAlnZOTtO5sy9GfkJ5ln-1" parent="OAlnZOTtO5sy9GfkJ5ln-0" />
        <mxCell id="EF13JWtDB8L7ueCXAuA1-0" value="Início" style="swimlane;childLayout=stackLayout;resizeParent=1;resizeParentMax=0;startSize=20;horizontal=0;horizontalStack=1;rounded=0;sketch=0;fillColor=default;strokeColor=#000000;" vertex="1" parent="OAlnZOTtO5sy9GfkJ5ln-1">
          <mxGeometry x="-1120" y="40" width="820" height="580" as="geometry" />
        </mxCell>
        <mxCell id="EF13JWtDB8L7ueCXAuA1-1" value="SplashScreen" style="swimlane;startSize=20;rounded=0;sketch=0;" vertex="1" parent="EF13JWtDB8L7ueCXAuA1-0">
          <mxGeometry x="20" width="170" height="580" as="geometry" />
        </mxCell>
        <mxCell id="EF13JWtDB8L7ueCXAuA1-2" value="Tela de carregamento" style="shape=delay;whiteSpace=wrap;html=1;rounded=0;sketch=0;align=left;" vertex="1" parent="EF13JWtDB8L7ueCXAuA1-1">
          <mxGeometry y="40" width="80" height="40" as="geometry" />
        </mxCell>
        <mxCell id="EF13JWtDB8L7ueCXAuA1-3" value="Tela de Login" style="swimlane;startSize=20;rounded=0;sketch=0;" vertex="1" parent="EF13JWtDB8L7ueCXAuA1-0">
          <mxGeometry x="190" width="280" height="580" as="geometry" />
        </mxCell>
        <mxCell id="EF13JWtDB8L7ueCXAuA1-4" value="Cadastre-se" style="shape=delay;whiteSpace=wrap;html=1;rounded=0;sketch=0;align=left;" vertex="1" parent="EF13JWtDB8L7ueCXAuA1-3">
          <mxGeometry y="40" width="80" height="40" as="geometry" />
        </mxCell>
        <mxCell id="EF13JWtDB8L7ueCXAuA1-5" value="Já é cadastrado? Faça login" style="shape=delay;whiteSpace=wrap;html=1;rounded=0;sketch=0;align=left;" vertex="1" parent="EF13JWtDB8L7ueCXAuA1-3">
          <mxGeometry y="440" width="80" height="60" as="geometry" />
        </mxCell>
        <mxCell id="EF13JWtDB8L7ueCXAuA1-6" value="" style="shape=table;html=1;whiteSpace=wrap;startSize=0;container=1;collapsible=0;childLayout=tableLayout;columnLines=1;rowLines=1;rounded=0;labelBackgroundColor=#FFFFFF;sketch=0;align=left;labelBorderColor=#000000;fixedRows=0;" vertex="1" parent="EF13JWtDB8L7ueCXAuA1-3">
          <mxGeometry x="10" y="90" width="260" height="304" as="geometry" />
        </mxCell>
        <mxCell id="EF13JWtDB8L7ueCXAuA1-7" value="" style="shape=partialRectangle;html=1;whiteSpace=wrap;collapsible=0;dropTarget=0;pointerEvents=0;fillColor=none;top=0;left=0;bottom=0;right=0;points=[[0,0.5],[1,0.5]];portConstraint=eastwest;rounded=0;labelBackgroundColor=#FFFFFF;sketch=0;fontColor=#000000;strokeColor=#000000;align=left;" vertex="1" parent="EF13JWtDB8L7ueCXAuA1-6">
          <mxGeometry width="260" height="28" as="geometry" />
        </mxCell>
        <mxCell id="EF13JWtDB8L7ueCXAuA1-8" value="Dado informado" style="shape=partialRectangle;html=1;whiteSpace=wrap;connectable=0;fillColor=none;top=0;left=0;bottom=0;right=0;overflow=hidden;pointerEvents=1;rounded=0;labelBackgroundColor=#FFFFFF;sketch=0;fontColor=#000000;strokeColor=#000000;align=center;fontStyle=1" vertex="1" parent="EF13JWtDB8L7ueCXAuA1-7">
          <mxGeometry width="130" height="28" as="geometry">
            <mxRectangle width="130" height="28" as="alternateBounds" />
          </mxGeometry>
        </mxCell>
        <mxCell id="EF13JWtDB8L7ueCXAuA1-9" value="Formato do dado&lt;span style=&quot;white-space: pre&quot;&gt;&lt;/span&gt;" style="shape=partialRectangle;html=1;whiteSpace=wrap;connectable=0;fillColor=none;top=0;left=0;bottom=0;right=0;overflow=hidden;pointerEvents=1;rounded=0;labelBackgroundColor=#FFFFFF;sketch=0;fontColor=#000000;strokeColor=#000000;align=center;fontStyle=1" vertex="1" parent="EF13JWtDB8L7ueCXAuA1-7">
          <mxGeometry x="130" width="130" height="28" as="geometry">
            <mxRectangle width="130" height="28" as="alternateBounds" />
          </mxGeometry>
        </mxCell>
        <mxCell id="EF13JWtDB8L7ueCXAuA1-10" value="" style="shape=partialRectangle;html=1;whiteSpace=wrap;collapsible=0;dropTarget=0;pointerEvents=0;fillColor=none;top=0;left=0;bottom=0;right=0;points=[[0,0.5],[1,0.5]];portConstraint=eastwest;rounded=0;labelBackgroundColor=#FFFFFF;sketch=0;fontColor=#000000;strokeColor=#000000;align=left;" vertex="1" parent="EF13JWtDB8L7ueCXAuA1-6">
          <mxGeometry y="28" width="260" height="30" as="geometry" />
        </mxCell>
        <mxCell id="EF13JWtDB8L7ueCXAuA1-11" value="Nome" style="shape=partialRectangle;html=1;whiteSpace=wrap;connectable=0;fillColor=none;top=0;left=0;bottom=0;right=0;overflow=hidden;pointerEvents=1;rounded=0;labelBackgroundColor=#FFFFFF;sketch=0;fontColor=#000000;strokeColor=#000000;align=left;" vertex="1" parent="EF13JWtDB8L7ueCXAuA1-10">
          <mxGeometry width="130" height="30" as="geometry">
            <mxRectangle width="130" height="30" as="alternateBounds" />
          </mxGeometry>
        </mxCell>
        <mxCell id="EF13JWtDB8L7ueCXAuA1-12" value="Value 5" style="shape=partialRectangle;html=1;whiteSpace=wrap;connectable=0;fillColor=none;top=0;left=0;bottom=0;right=0;overflow=hidden;pointerEvents=1;rounded=0;labelBackgroundColor=#FFFFFF;sketch=0;fontColor=#000000;strokeColor=#000000;align=left;" vertex="1" parent="EF13JWtDB8L7ueCXAuA1-10">
          <mxGeometry x="130" width="130" height="30" as="geometry">
            <mxRectangle width="130" height="30" as="alternateBounds" />
          </mxGeometry>
        </mxCell>
        <mxCell id="EF13JWtDB8L7ueCXAuA1-13" value="" style="shape=partialRectangle;html=1;whiteSpace=wrap;collapsible=0;dropTarget=0;pointerEvents=0;fillColor=none;top=0;left=0;bottom=0;right=0;points=[[0,0.5],[1,0.5]];portConstraint=eastwest;rounded=0;labelBackgroundColor=#FFFFFF;sketch=0;fontColor=#000000;strokeColor=#000000;align=left;" vertex="1" parent="EF13JWtDB8L7ueCXAuA1-6">
          <mxGeometry y="58" width="260" height="22" as="geometry" />
        </mxCell>
        <mxCell id="EF13JWtDB8L7ueCXAuA1-14" value="Sobrenome" style="shape=partialRectangle;html=1;whiteSpace=wrap;connectable=0;fillColor=none;top=0;left=0;bottom=0;right=0;overflow=hidden;pointerEvents=1;rounded=0;labelBackgroundColor=#FFFFFF;sketch=0;fontColor=#000000;strokeColor=#000000;align=left;" vertex="1" parent="EF13JWtDB8L7ueCXAuA1-13">
          <mxGeometry width="130" height="22" as="geometry">
            <mxRectangle width="130" height="22" as="alternateBounds" />
          </mxGeometry>
        </mxCell>
        <mxCell id="EF13JWtDB8L7ueCXAuA1-15" value="Value 8" style="shape=partialRectangle;html=1;whiteSpace=wrap;connectable=0;fillColor=none;top=0;left=0;bottom=0;right=0;overflow=hidden;pointerEvents=1;rounded=0;labelBackgroundColor=#FFFFFF;sketch=0;fontColor=#000000;strokeColor=#000000;align=left;" vertex="1" parent="EF13JWtDB8L7ueCXAuA1-13">
          <mxGeometry x="130" width="130" height="22" as="geometry">
            <mxRectangle width="130" height="22" as="alternateBounds" />
          </mxGeometry>
        </mxCell>
        <mxCell id="EF13JWtDB8L7ueCXAuA1-16" style="shape=partialRectangle;html=1;whiteSpace=wrap;collapsible=0;dropTarget=0;pointerEvents=0;fillColor=none;top=0;left=0;bottom=0;right=0;points=[[0,0.5],[1,0.5]];portConstraint=eastwest;rounded=0;labelBackgroundColor=#FFFFFF;sketch=0;fontColor=#000000;strokeColor=#000000;align=left;" vertex="1" parent="EF13JWtDB8L7ueCXAuA1-6">
          <mxGeometry y="80" width="260" height="28" as="geometry" />
        </mxCell>
        <mxCell id="EF13JWtDB8L7ueCXAuA1-17" value="Email" style="shape=partialRectangle;html=1;whiteSpace=wrap;connectable=0;fillColor=none;top=0;left=0;bottom=0;right=0;overflow=hidden;pointerEvents=1;rounded=0;labelBackgroundColor=#FFFFFF;sketch=0;fontColor=#000000;strokeColor=#000000;align=left;" vertex="1" parent="EF13JWtDB8L7ueCXAuA1-16">
          <mxGeometry width="130" height="28" as="geometry">
            <mxRectangle width="130" height="28" as="alternateBounds" />
          </mxGeometry>
        </mxCell>
        <mxCell id="EF13JWtDB8L7ueCXAuA1-18" value="AZaz09-_.@az.az.az" style="shape=partialRectangle;html=1;whiteSpace=wrap;connectable=0;fillColor=none;top=0;left=0;bottom=0;right=0;overflow=hidden;pointerEvents=1;rounded=0;labelBackgroundColor=#FFFFFF;sketch=0;fontColor=#000000;strokeColor=#000000;align=left;" vertex="1" parent="EF13JWtDB8L7ueCXAuA1-16">
          <mxGeometry x="130" width="130" height="28" as="geometry">
            <mxRectangle width="130" height="28" as="alternateBounds" />
          </mxGeometry>
        </mxCell>
        <mxCell id="EF13JWtDB8L7ueCXAuA1-19" style="shape=partialRectangle;html=1;whiteSpace=wrap;collapsible=0;dropTarget=0;pointerEvents=0;fillColor=none;top=0;left=0;bottom=0;right=0;points=[[0,0.5],[1,0.5]];portConstraint=eastwest;rounded=0;labelBackgroundColor=#FFFFFF;sketch=0;fontColor=#000000;strokeColor=#000000;align=left;" vertex="1" parent="EF13JWtDB8L7ueCXAuA1-6">
          <mxGeometry y="108" width="260" height="28" as="geometry" />
        </mxCell>
        <mxCell id="EF13JWtDB8L7ueCXAuA1-20" value="Telefone" style="shape=partialRectangle;html=1;whiteSpace=wrap;connectable=0;fillColor=none;top=0;left=0;bottom=0;right=0;overflow=hidden;pointerEvents=1;rounded=0;labelBackgroundColor=#FFFFFF;sketch=0;fontColor=#000000;strokeColor=#000000;align=left;" vertex="1" parent="EF13JWtDB8L7ueCXAuA1-19">
          <mxGeometry width="130" height="28" as="geometry">
            <mxRectangle width="130" height="28" as="alternateBounds" />
          </mxGeometry>
        </mxCell>
        <mxCell id="EF13JWtDB8L7ueCXAuA1-21" value="(00) 9 0000 0000" style="shape=partialRectangle;html=1;whiteSpace=wrap;connectable=0;fillColor=none;top=0;left=0;bottom=0;right=0;overflow=hidden;pointerEvents=1;rounded=0;labelBackgroundColor=#FFFFFF;sketch=0;fontColor=#000000;strokeColor=#000000;align=left;" vertex="1" parent="EF13JWtDB8L7ueCXAuA1-19">
          <mxGeometry x="130" width="130" height="28" as="geometry">
            <mxRectangle width="130" height="28" as="alternateBounds" />
          </mxGeometry>
        </mxCell>
        <mxCell id="EF13JWtDB8L7ueCXAuA1-22" style="shape=partialRectangle;html=1;whiteSpace=wrap;collapsible=0;dropTarget=0;pointerEvents=0;fillColor=none;top=0;left=0;bottom=0;right=0;points=[[0,0.5],[1,0.5]];portConstraint=eastwest;rounded=0;labelBackgroundColor=#FFFFFF;sketch=0;fontColor=#000000;strokeColor=#000000;align=left;" vertex="1" parent="EF13JWtDB8L7ueCXAuA1-6">
          <mxGeometry y="136" width="260" height="28" as="geometry" />
        </mxCell>
        <mxCell id="EF13JWtDB8L7ueCXAuA1-23" value="Endereço" style="shape=partialRectangle;html=1;whiteSpace=wrap;connectable=0;fillColor=none;top=0;left=0;bottom=0;right=0;overflow=hidden;pointerEvents=1;rounded=0;labelBackgroundColor=#FFFFFF;sketch=0;fontColor=#000000;strokeColor=#000000;align=center;labelBorderColor=none;fontStyle=1" vertex="1" parent="EF13JWtDB8L7ueCXAuA1-22">
          <mxGeometry width="130" height="28" as="geometry">
            <mxRectangle width="130" height="28" as="alternateBounds" />
          </mxGeometry>
        </mxCell>
        <mxCell id="EF13JWtDB8L7ueCXAuA1-24" style="shape=partialRectangle;html=1;whiteSpace=wrap;connectable=0;fillColor=none;top=0;left=0;bottom=0;right=0;overflow=hidden;pointerEvents=1;rounded=0;labelBackgroundColor=#FFFFFF;sketch=0;fontColor=#000000;strokeColor=#000000;align=left;" vertex="1" parent="EF13JWtDB8L7ueCXAuA1-22">
          <mxGeometry x="130" width="130" height="28" as="geometry">
            <mxRectangle width="130" height="28" as="alternateBounds" />
          </mxGeometry>
        </mxCell>
        <mxCell id="EF13JWtDB8L7ueCXAuA1-25" style="shape=partialRectangle;html=1;whiteSpace=wrap;collapsible=0;dropTarget=0;pointerEvents=0;fillColor=none;top=0;left=0;bottom=0;right=0;points=[[0,0.5],[1,0.5]];portConstraint=eastwest;rounded=0;labelBackgroundColor=#FFFFFF;sketch=0;fontColor=#000000;strokeColor=#000000;align=left;" vertex="1" parent="EF13JWtDB8L7ueCXAuA1-6">
          <mxGeometry y="164" width="260" height="28" as="geometry" />
        </mxCell>
        <mxCell id="EF13JWtDB8L7ueCXAuA1-26" value="CEP" style="shape=partialRectangle;html=1;whiteSpace=wrap;connectable=0;fillColor=none;top=0;left=0;bottom=0;right=0;overflow=hidden;pointerEvents=1;rounded=0;labelBackgroundColor=#FFFFFF;sketch=0;fontColor=#000000;strokeColor=#000000;align=left;labelBorderColor=none;fontStyle=0" vertex="1" parent="EF13JWtDB8L7ueCXAuA1-25">
          <mxGeometry width="130" height="28" as="geometry">
            <mxRectangle width="130" height="28" as="alternateBounds" />
          </mxGeometry>
        </mxCell>
        <mxCell id="EF13JWtDB8L7ueCXAuA1-27" value="00000-000" style="shape=partialRectangle;html=1;whiteSpace=wrap;connectable=0;fillColor=none;top=0;left=0;bottom=0;right=0;overflow=hidden;pointerEvents=1;rounded=0;labelBackgroundColor=#FFFFFF;sketch=0;fontColor=#000000;strokeColor=#000000;align=left;" vertex="1" parent="EF13JWtDB8L7ueCXAuA1-25">
          <mxGeometry x="130" width="130" height="28" as="geometry">
            <mxRectangle width="130" height="28" as="alternateBounds" />
          </mxGeometry>
        </mxCell>
        <mxCell id="EF13JWtDB8L7ueCXAuA1-28" style="shape=partialRectangle;html=1;whiteSpace=wrap;collapsible=0;dropTarget=0;pointerEvents=0;fillColor=none;top=0;left=0;bottom=0;right=0;points=[[0,0.5],[1,0.5]];portConstraint=eastwest;rounded=0;labelBackgroundColor=#FFFFFF;sketch=0;fontColor=#000000;strokeColor=#000000;align=left;" vertex="1" parent="EF13JWtDB8L7ueCXAuA1-6">
          <mxGeometry y="192" width="260" height="28" as="geometry" />
        </mxCell>
        <mxCell id="EF13JWtDB8L7ueCXAuA1-29" value="Rua" style="shape=partialRectangle;html=1;whiteSpace=wrap;connectable=0;fillColor=none;top=0;left=0;bottom=0;right=0;overflow=hidden;pointerEvents=1;rounded=0;labelBackgroundColor=#FFFFFF;sketch=0;fontColor=#000000;strokeColor=#000000;align=left;labelBorderColor=none;fontStyle=0" vertex="1" parent="EF13JWtDB8L7ueCXAuA1-28">
          <mxGeometry width="130" height="28" as="geometry">
            <mxRectangle width="130" height="28" as="alternateBounds" />
          </mxGeometry>
        </mxCell>
        <mxCell id="EF13JWtDB8L7ueCXAuA1-30" style="shape=partialRectangle;html=1;whiteSpace=wrap;connectable=0;fillColor=none;top=0;left=0;bottom=0;right=0;overflow=hidden;pointerEvents=1;rounded=0;labelBackgroundColor=#FFFFFF;sketch=0;fontColor=#000000;strokeColor=#000000;align=left;" vertex="1" parent="EF13JWtDB8L7ueCXAuA1-28">
          <mxGeometry x="130" width="130" height="28" as="geometry">
            <mxRectangle width="130" height="28" as="alternateBounds" />
          </mxGeometry>
        </mxCell>
        <mxCell id="EF13JWtDB8L7ueCXAuA1-31" style="shape=partialRectangle;html=1;whiteSpace=wrap;collapsible=0;dropTarget=0;pointerEvents=0;fillColor=none;top=0;left=0;bottom=0;right=0;points=[[0,0.5],[1,0.5]];portConstraint=eastwest;rounded=0;labelBackgroundColor=#FFFFFF;sketch=0;fontColor=#000000;strokeColor=#000000;align=left;" vertex="1" parent="EF13JWtDB8L7ueCXAuA1-6">
          <mxGeometry y="220" width="260" height="28" as="geometry" />
        </mxCell>
        <mxCell id="EF13JWtDB8L7ueCXAuA1-32" value="Número&lt;span style=&quot;white-space: pre&quot;&gt;&lt;/span&gt;&lt;span style=&quot;white-space: pre&quot;&gt;&lt;/span&gt;&lt;span style=&quot;white-space: pre&quot;&gt;&lt;/span&gt;" style="shape=partialRectangle;html=1;whiteSpace=wrap;connectable=0;fillColor=none;top=0;left=0;bottom=0;right=0;overflow=hidden;pointerEvents=1;rounded=0;labelBackgroundColor=#FFFFFF;sketch=0;fontColor=#000000;strokeColor=#000000;align=left;labelBorderColor=none;fontStyle=0" vertex="1" parent="EF13JWtDB8L7ueCXAuA1-31">
          <mxGeometry width="130" height="28" as="geometry">
            <mxRectangle width="130" height="28" as="alternateBounds" />
          </mxGeometry>
        </mxCell>
        <mxCell id="EF13JWtDB8L7ueCXAuA1-33" style="shape=partialRectangle;html=1;whiteSpace=wrap;connectable=0;fillColor=none;top=0;left=0;bottom=0;right=0;overflow=hidden;pointerEvents=1;rounded=0;labelBackgroundColor=#FFFFFF;sketch=0;fontColor=#000000;strokeColor=#000000;align=left;" vertex="1" parent="EF13JWtDB8L7ueCXAuA1-31">
          <mxGeometry x="130" width="130" height="28" as="geometry">
            <mxRectangle width="130" height="28" as="alternateBounds" />
          </mxGeometry>
        </mxCell>
        <mxCell id="EF13JWtDB8L7ueCXAuA1-34" style="shape=partialRectangle;html=1;whiteSpace=wrap;collapsible=0;dropTarget=0;pointerEvents=0;fillColor=none;top=0;left=0;bottom=0;right=0;points=[[0,0.5],[1,0.5]];portConstraint=eastwest;rounded=0;labelBackgroundColor=#FFFFFF;sketch=0;fontColor=#000000;strokeColor=#000000;align=left;" vertex="1" parent="EF13JWtDB8L7ueCXAuA1-6">
          <mxGeometry y="248" width="260" height="28" as="geometry" />
        </mxCell>
        <mxCell id="EF13JWtDB8L7ueCXAuA1-35" value="Complemento" style="shape=partialRectangle;html=1;whiteSpace=wrap;connectable=0;fillColor=none;top=0;left=0;bottom=0;right=0;overflow=hidden;pointerEvents=1;rounded=0;labelBackgroundColor=#FFFFFF;sketch=0;fontColor=#000000;strokeColor=#000000;align=left;labelBorderColor=none;fontStyle=0" vertex="1" parent="EF13JWtDB8L7ueCXAuA1-34">
          <mxGeometry width="130" height="28" as="geometry">
            <mxRectangle width="130" height="28" as="alternateBounds" />
          </mxGeometry>
        </mxCell>
        <mxCell id="EF13JWtDB8L7ueCXAuA1-36" style="shape=partialRectangle;html=1;whiteSpace=wrap;connectable=0;fillColor=none;top=0;left=0;bottom=0;right=0;overflow=hidden;pointerEvents=1;rounded=0;labelBackgroundColor=#FFFFFF;sketch=0;fontColor=#000000;strokeColor=#000000;align=left;" vertex="1" parent="EF13JWtDB8L7ueCXAuA1-34">
          <mxGeometry x="130" width="130" height="28" as="geometry">
            <mxRectangle width="130" height="28" as="alternateBounds" />
          </mxGeometry>
        </mxCell>
        <mxCell id="EF13JWtDB8L7ueCXAuA1-37" style="shape=partialRectangle;html=1;whiteSpace=wrap;collapsible=0;dropTarget=0;pointerEvents=0;fillColor=none;top=0;left=0;bottom=0;right=0;points=[[0,0.5],[1,0.5]];portConstraint=eastwest;rounded=0;labelBackgroundColor=#FFFFFF;sketch=0;fontColor=#000000;strokeColor=#000000;align=left;" vertex="1" parent="EF13JWtDB8L7ueCXAuA1-6">
          <mxGeometry y="276" width="260" height="28" as="geometry" />
        </mxCell>
        <mxCell id="EF13JWtDB8L7ueCXAuA1-38" style="shape=partialRectangle;html=1;whiteSpace=wrap;connectable=0;fillColor=none;top=0;left=0;bottom=0;right=0;overflow=hidden;pointerEvents=1;rounded=0;labelBackgroundColor=#FFFFFF;sketch=0;fontColor=#000000;strokeColor=#000000;align=left;labelBorderColor=none;fontStyle=0" vertex="1" parent="EF13JWtDB8L7ueCXAuA1-37">
          <mxGeometry width="130" height="28" as="geometry">
            <mxRectangle width="130" height="28" as="alternateBounds" />
          </mxGeometry>
        </mxCell>
        <mxCell id="EF13JWtDB8L7ueCXAuA1-39" style="shape=partialRectangle;html=1;whiteSpace=wrap;connectable=0;fillColor=none;top=0;left=0;bottom=0;right=0;overflow=hidden;pointerEvents=1;rounded=0;labelBackgroundColor=#FFFFFF;sketch=0;fontColor=#000000;strokeColor=#000000;align=left;" vertex="1" parent="EF13JWtDB8L7ueCXAuA1-37">
          <mxGeometry x="130" width="130" height="28" as="geometry">
            <mxRectangle width="130" height="28" as="alternateBounds" />
          </mxGeometry>
        </mxCell>
        <mxCell id="EF13JWtDB8L7ueCXAuA1-40" value="Lane 2" style="swimlane;startSize=20;rounded=0;sketch=0;" vertex="1" parent="EF13JWtDB8L7ueCXAuA1-0">
          <mxGeometry x="470" width="230" height="580" as="geometry" />
        </mxCell>
        <mxCell id="EF13JWtDB8L7ueCXAuA1-41" value="Tela principal do app" style="shape=delay;whiteSpace=wrap;html=1;rounded=0;sketch=0;align=left;" vertex="1" parent="EF13JWtDB8L7ueCXAuA1-40">
          <mxGeometry y="40" width="80" height="40" as="geometry" />
        </mxCell>
        <mxCell id="EF13JWtDB8L7ueCXAuA1-42" value="Lane 3" style="swimlane;startSize=20;rounded=0;sketch=0;" vertex="1" parent="EF13JWtDB8L7ueCXAuA1-0">
          <mxGeometry x="700" width="120" height="580" as="geometry" />
        </mxCell>
      </root>
    </mxGraphModel>
  </diagram>
</mxfile>
